<?xml version="1.0" encoding="UTF-8"?>
<svg width="154px" height="154px" viewBox="0 0 154 154" version="1.1" xmlns="http://www.w3.org/2000/svg" xmlns:xlink="http://www.w3.org/1999/xlink">
    <!-- Generator: Sketch 49.1 (51147) - http://www.bohemiancoding.com/sketch -->
    <title>bg</title>
    <desc>Created with Sketch.</desc>
    <defs>
        <polygon id="path-1" points="122 122 152 122 152 152 122 152"></polygon>
        <polygon id="path-2" points="92 122 122 122 122 152 92 152"></polygon>
        <polygon id="path-3" points="62 122 92 122 92 152 62 152"></polygon>
        <polygon id="path-4" points="32 122 62 122 62 152 32 152"></polygon>
        <polygon id="path-5" points="2 122 32 122 32 152 2 152"></polygon>
        <polygon id="path-6" points="122 92 152 92 152 122 122 122"></polygon>
        <polygon id="path-7" points="92 92 122 92 122 122 92 122"></polygon>
        <polygon id="path-8" points="62 92 92 92 92 122 62 122"></polygon>
        <polygon id="path-9" points="32 92 62 92 62 122 32 122"></polygon>
        <polygon id="path-10" points="2 92 32 92 32 122 2 122"></polygon>
        <polygon id="path-11" points="122 62 152 62 152 92 122 92"></polygon>
        <polygon id="path-12" points="92 62 122 62 122 92 92 92"></polygon>
        <polygon id="path-13" points="62 62 92 62 92 92 62 92"></polygon>
        <polygon id="path-14" points="32 62 62 62 62 92 32 92"></polygon>
        <polygon id="path-15" points="2 62 32 62 32 92 2 92"></polygon>
        <polygon id="path-16" points="122 32 152 32 152 62 122 62"></polygon>
        <polygon id="path-17" points="92 32 122 32 122 62 92 62"></polygon>
        <polygon id="path-18" points="62 32 92 32 92 62 62 62"></polygon>
        <polygon id="path-19" points="32 32 62 32 62 62 32 62"></polygon>
        <polygon id="path-20" points="2 32 32 32 32 62 2 62"></polygon>
        <polygon id="path-21" points="122 2 152 2 152 32 122 32"></polygon>
        <polygon id="path-22" points="92 2 122 2 122 32 92 32"></polygon>
        <polygon id="path-23" points="62 2 92 2 92 32 62 32"></polygon>
        <polygon id="path-24" points="32 2 62 2 62 32 32 32"></polygon>
        <polygon id="path-25" points="2 2 32 2 32 32 2 32"></polygon>
    </defs>
    <g id="Page-1" stroke="none" stroke-width="1" fill="none" fill-rule="evenodd">
        <g id="bg">
            <g id="Group">
                <rect id="Rectangle-2" stroke="#E64A63" x="0.5" y="0.5" width="153" height="153"></rect>
                <g id="Rectangle-Copy-24">
                    <use fill="#DE0D2F" fill-rule="evenodd" xlink:href="#path-1"></use>
                    <path stroke="#E64A63" stroke-width="1" d="M121.5,121.5 L152.5,121.5 L152.5,152.5 L121.5,152.5 L121.5,121.5 Z"></path>
                </g>
                <g id="Rectangle-Copy-23">
                    <use fill="#DE0D2F" fill-rule="evenodd" xlink:href="#path-2"></use>
                    <path stroke="#E64A63" stroke-width="1" d="M91.5,121.5 L122.5,121.5 L122.5,152.5 L91.5,152.5 L91.5,121.5 Z"></path>
                </g>
                <g id="Rectangle-Copy-22">
                    <use fill="#DE0D2F" fill-rule="evenodd" xlink:href="#path-3"></use>
                    <path stroke="#E64A63" stroke-width="1" d="M61.5,121.5 L92.5,121.5 L92.5,152.5 L61.5,152.5 L61.5,121.5 Z"></path>
                </g>
                <g id="Rectangle-Copy-21">
                    <use fill="#DE0D2F" fill-rule="evenodd" xlink:href="#path-4"></use>
                    <path stroke="#E64A63" stroke-width="1" d="M31.5,121.5 L62.5,121.5 L62.5,152.5 L31.5,152.5 L31.5,121.5 Z"></path>
                </g>
                <g id="Rectangle-Copy-20">
                    <use fill="#DE0D2F" fill-rule="evenodd" xlink:href="#path-5"></use>
                    <path stroke="#E64A63" stroke-width="1" d="M1.5,121.5 L32.5,121.5 L32.5,152.5 L1.5,152.5 L1.5,121.5 Z"></path>
                </g>
                <g id="Rectangle-Copy-19">
                    <use fill="#DE0D2F" fill-rule="evenodd" xlink:href="#path-6"></use>
                    <path stroke="#E64A63" stroke-width="1" d="M121.5,91.5 L152.5,91.5 L152.5,122.5 L121.5,122.5 L121.5,91.5 Z"></path>
                </g>
                <g id="Rectangle-Copy-18">
                    <use fill="#DE0D2F" fill-rule="evenodd" xlink:href="#path-7"></use>
                    <path stroke="#E64A63" stroke-width="1" d="M91.5,91.5 L122.5,91.5 L122.5,122.5 L91.5,122.5 L91.5,91.5 Z"></path>
                </g>
                <g id="Rectangle-Copy-17">
                    <use fill="#DE0D2F" fill-rule="evenodd" xlink:href="#path-8"></use>
                    <path stroke="#E64A63" stroke-width="1" d="M61.5,91.5 L92.5,91.5 L92.5,122.5 L61.5,122.5 L61.5,91.5 Z"></path>
                </g>
                <g id="Rectangle-Copy-16">
                    <use fill="#DE0D2F" fill-rule="evenodd" xlink:href="#path-9"></use>
                    <path stroke="#E64A63" stroke-width="1" d="M31.5,91.5 L62.5,91.5 L62.5,122.5 L31.5,122.5 L31.5,91.5 Z"></path>
                </g>
                <g id="Rectangle-Copy-15">
                    <use fill="#DE0D2F" fill-rule="evenodd" xlink:href="#path-10"></use>
                    <path stroke="#E64A63" stroke-width="1" d="M1.5,91.5 L32.5,91.5 L32.5,122.5 L1.5,122.5 L1.5,91.5 Z"></path>
                </g>
                <g id="Rectangle-Copy-14">
                    <use fill="#DE0D2F" fill-rule="evenodd" xlink:href="#path-11"></use>
                    <path stroke="#E64A63" stroke-width="1" d="M121.5,61.5 L152.5,61.5 L152.5,92.5 L121.5,92.5 L121.5,61.5 Z"></path>
                </g>
                <g id="Rectangle-Copy-13">
                    <use fill="#DE0D2F" fill-rule="evenodd" xlink:href="#path-12"></use>
                    <path stroke="#E64A63" stroke-width="1" d="M91.5,61.5 L122.5,61.5 L122.5,92.5 L91.5,92.5 L91.5,61.5 Z"></path>
                </g>
                <g id="Rectangle-Copy-12">
                    <use fill="#DE0D2F" fill-rule="evenodd" xlink:href="#path-13"></use>
                    <path stroke="#E64A63" stroke-width="1" d="M61.5,61.5 L92.5,61.5 L92.5,92.5 L61.5,92.5 L61.5,61.5 Z"></path>
                </g>
                <g id="Rectangle-Copy-11">
                    <use fill="#DE0D2F" fill-rule="evenodd" xlink:href="#path-14"></use>
                    <path stroke="#E64A63" stroke-width="1" d="M31.5,61.5 L62.5,61.5 L62.5,92.5 L31.5,92.5 L31.5,61.5 Z"></path>
                </g>
                <g id="Rectangle-Copy-10">
                    <use fill="#DE0D2F" fill-rule="evenodd" xlink:href="#path-15"></use>
                    <path stroke="#E64A63" stroke-width="1" d="M1.5,61.5 L32.5,61.5 L32.5,92.5 L1.5,92.5 L1.5,61.5 Z"></path>
                </g>
                <g id="Rectangle-Copy-9">
                    <use fill="#DE0D2F" fill-rule="evenodd" xlink:href="#path-16"></use>
                    <path stroke="#E64A63" stroke-width="1" d="M121.5,31.5 L152.5,31.5 L152.5,62.5 L121.5,62.5 L121.5,31.5 Z"></path>
                </g>
                <g id="Rectangle-Copy-8">
                    <use fill="#DE0D2F" fill-rule="evenodd" xlink:href="#path-17"></use>
                    <path stroke="#E64A63" stroke-width="1" d="M91.5,31.5 L122.5,31.5 L122.5,62.5 L91.5,62.5 L91.5,31.5 Z"></path>
                </g>
                <g id="Rectangle-Copy-7">
                    <use fill="#DE0D2F" fill-rule="evenodd" xlink:href="#path-18"></use>
                    <path stroke="#E64A63" stroke-width="1" d="M61.5,31.5 L92.5,31.5 L92.5,62.5 L61.5,62.5 L61.5,31.5 Z"></path>
                </g>
                <g id="Rectangle-Copy-6">
                    <use fill="#DE0D2F" fill-rule="evenodd" xlink:href="#path-19"></use>
                    <path stroke="#E64A63" stroke-width="1" d="M31.5,31.5 L62.5,31.5 L62.5,62.5 L31.5,62.5 L31.5,31.5 Z"></path>
                </g>
                <g id="Rectangle-Copy-5">
                    <use fill="#DE0D2F" fill-rule="evenodd" xlink:href="#path-20"></use>
                    <path stroke="#E64A63" stroke-width="1" d="M1.5,31.5 L32.5,31.5 L32.5,62.5 L1.5,62.5 L1.5,31.5 Z"></path>
                </g>
                <g id="Rectangle-Copy-4">
                    <use fill="#DE0D2F" fill-rule="evenodd" xlink:href="#path-21"></use>
                    <path stroke="#E64A63" stroke-width="1" d="M121.5,1.5 L152.5,1.5 L152.5,32.5 L121.5,32.5 L121.5,1.5 Z"></path>
                </g>
                <g id="Rectangle-Copy-3">
                    <use fill="#DE0D2F" fill-rule="evenodd" xlink:href="#path-22"></use>
                    <path stroke="#E64A63" stroke-width="1" d="M91.5,1.5 L122.5,1.5 L122.5,32.5 L91.5,32.5 L91.5,1.5 Z"></path>
                </g>
                <g id="Rectangle-Copy-2">
                    <use fill="#DE0D2F" fill-rule="evenodd" xlink:href="#path-23"></use>
                    <path stroke="#E64A63" stroke-width="1" d="M61.5,1.5 L92.5,1.5 L92.5,32.5 L61.5,32.5 L61.5,1.5 Z"></path>
                </g>
                <g id="Rectangle-Copy">
                    <use fill="#DE0D2F" fill-rule="evenodd" xlink:href="#path-24"></use>
                    <path stroke="#E64A63" stroke-width="1" d="M31.5,1.5 L62.5,1.5 L62.5,32.5 L31.5,32.5 L31.5,1.5 Z"></path>
                </g>
                <g id="Rectangle">
                    <use fill="#DE0D2F" fill-rule="evenodd" xlink:href="#path-25"></use>
                    <path stroke="#E64A63" stroke-width="1" d="M1.5,1.5 L32.5,1.5 L32.5,32.5 L1.5,32.5 L1.5,1.5 Z"></path>
                </g>
            </g>
        </g>
    </g>
</svg>