<?xml version="1.0" encoding="UTF-8"?>
<svg width="4px" height="9px" viewBox="0 0 4 9" version="1.1" xmlns="http://www.w3.org/2000/svg" xmlns:xlink="http://www.w3.org/1999/xlink">
    <!-- Generator: Sketch 47 (45396) - http://www.bohemiancoding.com/sketch -->
    <title>Fill 1</title>
    <desc>Created with Sketch.</desc>
    <defs></defs>
    <g id="Symbols" stroke="none" stroke-width="1" fill="none" fill-rule="evenodd">
        <g id="info" transform="translate(-9.000000, -9.000000)" fill="#FFFFFF">
            <g id="Page-1-Copy-9">
                <path d="M11.7104616,15.303893 L12.0562432,13.7880718 L12.8218439,10.4318258 C12.9581261,9.83393032 12.6230092,9.22900735 12.0733682,9.08064896 L11.9737971,9.05376597 C11.9069378,9.03569525 11.8402835,9.02565596 11.773937,9.02219798 L11.7747573,9 C11.7747573,9 11.7583501,9.00803143 11.7299452,9.02197489 C11.4149271,9.02074787 10.9546028,9.35327145 10.9546028,9.35327145 C10.0605133,10.0313697 8.83674175,10.9306669 9.01804123,11.35901 C9.29255408,12.0077712 10.6328167,10.3007573 10.311851,11.7083772 L9.96606936,13.2239753 L9.20057126,16.5802214 C9.06418646,17.1782284 9.35479887,17.7711042 9.90454239,17.9194626 L10.004011,17.9463456 C10.0708703,17.9644163 10.1377296,17.9745671 10.2040762,17.977802 L10.2030508,18 C10.2030508,18 10.219663,17.9920801 10.2479655,17.9780251 C10.5630861,17.9793637 11.0233079,17.6467286 11.0233079,17.6467286 C11.9176024,16.9686303 13.1636262,16.0753566 12.9822242,15.6469021 C12.7075063,14.9982524 11.3894959,16.7112899 11.7104616,15.303893" id="Fill-1"></path>
            </g>
        </g>
    </g>
</svg>