<svg width="30px" height="30px" viewBox="0 0 28 28" version="1.1" xmlns="http://www.w3.org/2000/svg">
  <g stroke="none" stroke-width="1" fill="none" fill-rule="evenodd">
    <g transform="translate(-646.000000, -493.000000)">
      <g transform="translate(646.000000, 493.000000)">
        <path
          d="M14.1610737,26.808 C13.9473895,26.808 13.7270737,26.769 13.5060211,26.69325 C13.4713895,26.6835 13.4374947,26.6715 13.4043368,26.658 L13.4036,26.6595 C13.2171789,26.58675 13.0425474,26.484 12.8826526,26.3535 C12.8524421,26.33325 12.8237053,26.31225 12.7964421,26.28975 C12.7566526,26.256 12.7190737,26.22 12.6844421,26.18175 C12.6667579,26.16525 12.6505474,26.148 12.6365474,26.133 L12.4589684,25.94325 C8.44391579,21.65625 6.21054737,19.19625 5.04412632,17.88675 C1.89928421,14.36775 -0.000294736842,12.243 -0.000294736842,8.526 C-0.000294736842,4.49325 3.33465263,0 8.12044211,0 C11.0928632,0.006 12.9946526,1.269 14.1367579,2.48325 C15.6119158,0.876 17.6581263,0.00525 20.0373895,0 L20.0396,0 C24.7310737,0 27.9997053,4.49325 27.9997053,8.526 C27.9997053,12.21675 26.1561263,14.34075 23.1019158,17.85975 C20.3453895,21.039 15.7578105,26.0565 15.6583368,26.15775 L15.6583368,26.15775 C15.6531789,26.163 15.6480211,26.16825 15.6421263,26.1735 C15.6207579,26.1975 15.5979158,26.21925 15.5743368,26.241 L15.5743368,26.241 C15.5573895,26.2575 15.5374947,26.274 15.5168632,26.29125 C15.3562316,26.4315 15.1734947,26.5485 14.9723368,26.63925 C14.9200211,26.6625 14.8654947,26.682 14.8102316,26.697 C14.5913895,26.7705 14.3732842,26.808 14.1610737,26.808 L14.1610737,26.808 Z"
          id="Path" fill="#000000" opacity="0.463428442"/>
      </g>
    </g>
  </g>
</svg>
