<?xml version="1.0" encoding="UTF-8"?>
<svg width="16px" height="16px" viewBox="0 0 16 16" version="1.1" xmlns="http://www.w3.org/2000/svg" xmlns:xlink="http://www.w3.org/1999/xlink">
    <!-- Generator: Sketch 46.2 (44496) - http://www.bohemiancoding.com/sketch -->
    <title>info copy 2</title>
    <desc>Created with Sketch.</desc>
    <defs></defs>
    <g id="Brand-first-time" stroke="none" stroke-width="1" fill="none" fill-rule="evenodd">
        <g id="Apply-now" transform="translate(-240.000000, -290.000000)">
            <g id="info" transform="translate(240.000000, 290.000000)">
                <g id="Page-1-Copy-9">
                    <circle id="Oval-2" fill="#56A4D6" cx="8" cy="8" r="8"></circle>
                    <path d="M8.51669937,11.130104 L8.76817689,10.0276886 L9.32497737,7.58678239 C9.42409173,7.15194932 9.18037033,6.71200535 8.78063144,6.60410833 L8.70821606,6.58455707 C8.65959111,6.57141473 8.61111531,6.56411343 8.56286324,6.56159853 L8.56345987,6.54545455 C8.56345987,6.54545455 8.55152737,6.55129559 8.53086922,6.56143628 C8.30176514,6.5605439 7.96698382,6.80237923 7.96698382,6.80237923 C7.31673692,7.29554159 6.42672127,7.94957595 6.55857544,8.26109815 C6.75822115,8.73292448 7.73295758,7.49145984 7.49952797,8.51518344 L7.24805045,9.61743659 L6.69132455,12.0583428 C6.59213561,12.493257 6.80349009,12.9244394 7.20330356,13.0323364 L7.27564436,13.0518877 C7.32426932,13.06503 7.37289427,13.0724125 7.42114633,13.0747651 L7.42040055,13.0909091 C7.42040055,13.0909091 7.43248221,13.0851492 7.45306578,13.0749274 C7.68224444,13.0759009 8.01695118,12.8339844 8.01695118,12.8339844 C8.66734723,12.340822 9.57354634,11.6911685 9.44161759,11.3795651 C9.24182273,10.9078199 8.28326976,12.1536654 8.51669937,11.130104" id="Fill-1" fill="#FFFFFF"></path>
                    <path d="M9.09090909,3.63636364 C9.6934026,3.63636364 10.1818182,4.12477922 10.1818182,4.72727273 C10.1818182,5.32976623 9.6934026,5.81818182 9.09090909,5.81818182 C8.48849351,5.81818182 8,5.32976623 8,4.72727273 C8,4.12477922 8.48849351,3.63636364 9.09090909,3.63636364" id="Fill-3" fill="#FFFFFF"></path>
                </g>
            </g>
        </g>
    </g>
</svg>