<svg width="133px" height="28px" viewBox="0 0 133 28" version="1.1" xmlns="http://www.w3.org/2000/svg">
  <g id="Page-1" stroke="none" stroke-width="1" fill="none" fill-rule="evenodd">
    <g id="logo">
      <g id="Group-3">
        <path
          d="M30.832,25.8624 C28.344,25.8624 25.949,25.0664 23.965,23.6084 C23.965,23.6074 23.966,23.6064 23.967,23.6064 L23.962,23.6094 C23.962,23.6094 22.221,22.1704 22.2,22.1504 C19.946,20.0464 13.957,14.4544 16,11.8414 C16.564,11.1204 17.547,10.7064 18.541,10.7064 C18.915,10.7064 19.29,10.7644 19.646,10.8874 C20.353,11.1314 21.193,11.7034 21.228,13.0444 C21.228,13.0734 21.228,13.1024 21.228,13.1314 L21.229,14.1994 L23.367,14.1994 L23.367,13.1314 C23.367,13.1024 23.367,13.0734 23.366,13.0444 C23.401,11.7034 24.241,11.1314 24.949,10.8874 C26.249,10.4384 27.818,10.8484 28.595,11.8414 C30.294,14.0144 26.441,18.2424 23.797,20.8174 L25.398,22.2454 C28.687,19.0464 33.057,14.0784 30.279,10.5254 C28.945,8.8204 26.41,8.1224 24.252,8.8664 C23.457,9.1404 22.796,9.5804 22.297,10.1484 C21.798,9.5804 21.138,9.1404 20.342,8.8664 C18.183,8.1214 15.649,8.8204 14.316,10.5254 C11.105,14.6314 17.445,20.6334 20.625,23.6044 C18.64,25.0644 16.243,25.8624 13.752,25.8624 C7.348,25.8624 2.138,20.6524 2.138,14.2474 C2.138,7.8434 7.348,2.6334 13.752,2.6334 C16.653,2.6334 19.43,3.7084 21.572,5.6604 L22.292,6.3164 L23.012,5.6604 C25.154,3.7084 27.932,2.6334 30.832,2.6334 C37.236,2.6334 42.447,7.8434 42.447,14.2474 C42.447,20.6524 37.236,25.8624 30.832,25.8624 M30.832,0.4954 C27.714,0.4954 24.716,1.5444 22.292,3.4674 C19.868,1.5454 16.87,0.4954 13.752,0.4954 C6.169,0.4954 0,6.6644 0,14.2474 C0,21.8304 6.169,28.0004 13.752,28.0004 C16.87,28.0004 19.868,26.9504 22.292,25.0274 C24.717,26.9504 27.714,28.0004 30.832,28.0004 C38.415,28.0004 44.584,21.8304 44.584,14.2474 C44.584,6.6644 38.415,0.4954 30.832,0.4954"
          id="Fill-1"/>>
      </g>
      <path
        d="M53.2519,14.2699 C53.2519,15.1839 53.4449,15.9189 53.8329,16.4739 C54.2189,17.0289 54.8079,17.3069 55.5989,17.3069 C56.0979,17.3069 56.5159,17.1929 56.8529,16.9659 C57.1889,16.7389 57.4669,16.4179 57.6859,16.0029 L57.6859,11.8129 C57.4719,11.4259 57.1939,11.1189 56.8529,10.8919 C56.5099,10.6649 56.0979,10.5519 55.6159,10.5519 C54.8249,10.5519 54.2329,10.8829 53.8409,11.5439 C53.4479,12.2059 53.2519,13.0559 53.2519,14.0929 L53.2519,14.2699 Z M51.5949,14.0929 C51.5949,12.6289 51.9139,11.4489 52.5539,10.5519 C53.1929,9.6539 54.0759,9.2059 55.2039,9.2059 C55.7809,9.2059 56.2889,9.3219 56.7259,9.5549 C57.1639,9.7879 57.5279,10.1229 57.8199,10.5599 L58.0219,9.3739 L59.3429,9.3739 L59.3429,18.5269 C59.3429,19.6929 59.0029,20.5889 58.3249,21.2139 C57.6459,21.8399 56.6679,22.1519 55.3889,22.1519 C54.9509,22.1519 54.4789,22.0919 53.9709,21.9719 C53.4629,21.8509 53.0159,21.6869 52.6289,21.4789 L53.0499,20.1919 C53.3469,20.3609 53.7059,20.4969 54.1269,20.6009 C54.5469,20.7039 54.9619,20.7559 55.3719,20.7559 C56.1799,20.7559 56.7669,20.5719 57.1339,20.2049 C57.5019,19.8369 57.6859,19.2779 57.6859,18.5269 L57.6859,17.4999 C57.3879,17.8819 57.0319,18.1689 56.6169,18.3629 C56.2019,18.5559 55.7249,18.6529 55.1869,18.6529 C54.0709,18.6529 53.1929,18.2489 52.5539,17.4409 C51.9139,16.6339 51.5949,15.5769 51.5949,14.2699 L51.5949,14.0929 Z"
        id="Fill-4"></path>
      <path
        d="M66.0351,10.8372 L65.1851,10.7872 C64.7481,10.7872 64.3791,10.8912 64.0791,11.0982 C63.7791,11.3062 63.5481,11.5972 63.3851,11.9732 L63.3851,18.4762 L61.7281,18.4762 L61.7281,9.3732 L63.2081,9.3732 L63.3681,10.7032 C63.6261,10.2322 63.9451,9.8642 64.3231,9.6012 C64.7021,9.3372 65.1381,9.2052 65.6311,9.2052 C65.7541,9.2052 65.8721,9.2152 65.9851,9.2342 C66.0971,9.2542 66.1891,9.2752 66.2621,9.2972 L66.0351,10.8372 Z"
        id="Fill-6"></path>
      <path
        d="M68.7197,14.0218 C68.7197,14.9848 68.9227,15.7808 69.3297,16.4078 C69.7357,17.0348 70.3407,17.3488 71.1427,17.3488 C71.9327,17.3488 72.5327,17.0348 72.9427,16.4078 C73.3517,15.7808 73.5567,14.9848 73.5567,14.0218 L73.5567,13.8358 C73.5567,12.8838 73.3507,12.0918 72.9387,11.4588 C72.5267,10.8258 71.9217,10.5088 71.1257,10.5088 C70.3347,10.5088 69.7357,10.8258 69.3297,11.4588 C68.9227,12.0918 68.7197,12.8838 68.7197,13.8358 L68.7197,14.0218 Z M67.0627,13.8408 C67.0627,12.4948 67.4267,11.3858 68.1557,10.5138 C68.8847,9.6418 69.8747,9.2058 71.1257,9.2058 C72.3877,9.2058 73.3847,9.6398 74.1157,10.5088 C74.8477,11.3788 75.2147,12.4888 75.2147,13.8408 L75.2147,14.0258 C75.2147,15.3828 74.8497,16.4938 74.1207,17.3568 C73.3907,18.2208 72.3987,18.6528 71.1427,18.6528 C69.8857,18.6528 68.8917,18.2198 68.1597,17.3528 C67.4277,16.4868 67.0627,15.3778 67.0627,14.0258 L67.0627,13.8408 Z"
        id="Fill-8"></path>
      <polygon id="Fill-10"
               points="79.2665 15.1615 79.4605 16.2635 79.5105 16.2635 79.7455 15.1615 81.5635 9.3735 82.8925 9.3735 84.7185 15.1615 84.9785 16.3905 85.0295 16.3905 85.2735 15.1615 86.7035 9.3735 88.3525 9.3735 85.7105 18.4755 84.3725 18.4755 82.6155 12.9325 82.2365 11.3845 82.1855 11.3925 81.8245 12.9325 80.0915 18.4755 78.7535 18.4755 76.1115 9.3735 77.7605 9.3735"></polygon>
      <path
        d="M94.9677,16.0531 C94.9677,15.6891 94.8287,15.3881 94.5507,15.1531 C94.2737,14.9171 93.7477,14.7131 92.9737,14.5391 C91.8687,14.2981 91.0377,13.9721 90.4797,13.5601 C89.9217,13.1491 89.6427,12.5881 89.6427,11.8761 C89.6427,11.1371 89.9567,10.5071 90.5847,9.9871 C91.2127,9.4661 92.0317,9.2051 93.0417,9.2051 C94.1007,9.2051 94.9437,9.4771 95.5697,10.0211 C96.1947,10.5661 96.4927,11.2271 96.4657,12.0071 L96.4477,12.0571 L94.8667,12.0571 C94.8667,11.6591 94.6997,11.3021 94.3657,10.9851 C94.0327,10.6681 93.5907,10.5091 93.0417,10.5091 C92.4527,10.5091 92.0147,10.6381 91.7287,10.8961 C91.4427,11.1551 91.2997,11.4661 91.2997,11.8301 C91.2997,12.1891 91.4257,12.4721 91.6787,12.6791 C91.9307,12.8871 92.4437,13.0731 93.2177,13.2351 C94.3677,13.4821 95.2227,13.8171 95.7837,14.2401 C96.3437,14.6641 96.6247,15.2321 96.6247,15.9441 C96.6247,16.7511 96.2987,17.4051 95.6447,17.9041 C94.9917,18.4041 94.1377,18.6531 93.0837,18.6531 C91.9227,18.6531 91.0087,18.3581 90.3407,17.7691 C89.6737,17.1801 89.3567,16.4941 89.3897,15.7081 L89.4067,15.6581 L90.9887,15.6581 C91.0167,16.2431 91.2357,16.6721 91.6447,16.9431 C92.0537,17.2131 92.5337,17.3491 93.0837,17.3491 C93.6727,17.3491 94.1337,17.2301 94.4677,16.9911 C94.8007,16.7531 94.9677,16.4401 94.9677,16.0531"
        id="Fill-12"></path>
      <path
        d="M99.8134,14.0218 C99.8134,14.9848 100.0164,15.7808 100.4234,16.4078 C100.8304,17.0348 101.4344,17.3488 102.2364,17.3488 C103.0274,17.3488 103.6264,17.0348 104.0364,16.4078 C104.4454,15.7808 104.6504,14.9848 104.6504,14.0218 L104.6504,13.8358 C104.6504,12.8838 104.4444,12.0918 104.0324,11.4588 C103.6204,10.8258 103.0154,10.5088 102.2194,10.5088 C101.4284,10.5088 100.8304,10.8258 100.4234,11.4588 C100.0164,12.0918 99.8134,12.8838 99.8134,13.8358 L99.8134,14.0218 Z M98.1564,13.8408 C98.1564,12.4948 98.5204,11.3858 99.2504,10.5138 C99.9784,9.6418 100.9684,9.2058 102.2194,9.2058 C103.4814,9.2058 104.4784,9.6398 105.2094,10.5088 C105.9414,11.3788 106.3084,12.4888 106.3084,13.8408 L106.3084,14.0258 C106.3084,15.3828 105.9434,16.4938 105.2144,17.3568 C104.4854,18.2208 103.4924,18.6528 102.2364,18.6528 C100.9804,18.6528 99.9854,18.2198 99.2534,17.3528 C98.5214,16.4868 98.1564,15.3778 98.1564,14.0258 L98.1564,13.8408 Z"
        id="Fill-14"></path>
      <path
        d="M112.0165,17.349 C112.5655,17.349 113.0495,17.18 113.4675,16.84 C113.8855,16.501 114.0945,16.084 114.0945,15.591 L115.5835,15.591 L115.5995,15.641 C115.6275,16.427 115.2785,17.125 114.5525,17.736 C113.8265,18.347 112.9805,18.653 112.0165,18.653 C110.6925,18.653 109.6805,18.221 108.9795,17.357 C108.2785,16.494 107.9275,15.409 107.9275,14.101 L107.9275,13.748 C107.9275,12.453 108.2795,11.371 108.9835,10.505 C109.6865,9.639 110.6985,9.205 112.0165,9.205 C113.0815,9.205 113.9525,9.52 114.6285,10.148 C115.3045,10.776 115.6305,11.547 115.6085,12.461 L115.5915,12.512 L114.0945,12.512 C114.0945,11.956 113.8975,11.484 113.5055,11.094 C113.1125,10.704 112.6165,10.509 112.0165,10.509 C111.1465,10.509 110.5255,10.822 110.1525,11.446 C109.7795,12.071 109.5935,12.837 109.5935,13.745 L109.5935,14.097 C109.5935,15.027 109.7785,15.801 110.1485,16.42 C110.5185,17.039 111.1415,17.349 112.0165,17.349"
        id="Fill-16"></path>
      <path
        d="M117.565,18.4756 L119.222,18.4756 L119.222,9.3726 L117.565,9.3726 L117.565,18.4756 Z M117.565,7.0436 L119.222,7.0436 L119.222,5.3526 L117.565,5.3526 L117.565,7.0436 Z"
        id="Fill-18"></path>
      <path
        d="M124.4443,17.2562 C125.0443,17.2562 125.5853,17.1022 126.0683,16.7952 C126.5493,16.4872 126.8633,16.1352 127.0093,15.7372 L127.0093,14.2612 L125.1513,14.2612 C124.4833,14.2612 123.9483,14.4292 123.5483,14.7642 C123.1473,15.1002 122.9463,15.4942 122.9463,15.9472 C122.9463,16.3502 123.0723,16.6692 123.3253,16.9042 C123.5773,17.1392 123.9503,17.2562 124.4443,17.2562 L124.4443,17.2562 Z M127.1943,18.4762 C127.1383,18.2012 127.0953,17.9592 127.0643,17.7482 C127.0333,17.5382 127.0153,17.3262 127.0093,17.1132 C126.7013,17.5502 126.2993,17.9172 125.8023,18.2112 C125.3063,18.5062 124.7723,18.6522 124.2003,18.6522 C123.2523,18.6522 122.5303,18.4102 122.0333,17.9252 C121.5373,17.4402 121.2893,16.7712 121.2893,15.9192 C121.2893,15.0492 121.6413,14.3692 122.3453,13.8792 C123.0483,13.3882 124.0033,13.1422 125.2093,13.1422 L127.0093,13.1422 L127.0093,12.2422 C127.0093,11.7102 126.8473,11.2872 126.5223,10.9762 C126.1963,10.6652 125.7363,10.5092 125.1423,10.5092 C124.6093,10.5092 124.1763,10.6452 123.8423,10.9172 C123.5083,11.1902 123.3423,11.5162 123.3423,11.8972 L121.7603,11.8972 L121.7433,11.8472 C121.7103,11.1852 122.0223,10.5792 122.6813,10.0292 C123.3403,9.4802 124.1923,9.2052 125.2353,9.2052 C126.2663,9.2052 127.0963,9.4672 127.7253,9.9922 C128.3533,10.5162 128.6673,11.2722 128.6673,12.2592 L128.6673,16.6422 C128.6673,16.9672 128.6843,17.2812 128.7173,17.5842 C128.7513,17.8872 128.8133,18.1852 128.9023,18.4762 L127.1943,18.4762 Z"
        id="Fill-20"></path>
      <polygon id="Fill-21" points="131.1 18.4756 132.758 18.4756 132.758 5.3516 131.1 5.3516"/>
    </g>
  </g>
</svg>
