<?xml version="1.0" encoding="UTF-8"?>
<svg width="5px" height="13px" viewBox="0 0 5 13" version="1.1" xmlns="http://www.w3.org/2000/svg" xmlns:xlink="http://www.w3.org/1999/xlink">
    <!-- Generator: Sketch 47 (45396) - http://www.bohemiancoding.com/sketch -->
    <title>Page 1 Copy 9</title>
    <desc>Created with Sketch.</desc>
    <defs></defs>
    <g id="Symbols" stroke="none" stroke-width="1" fill="none" fill-rule="evenodd">
        <g id="info" transform="translate(-9.000000, -5.000000)" fill="#FFFFFF">
            <g id="Page-1-Copy-9" transform="translate(9.000000, 5.000000)">
                <path d="M2.71046163,10.303893 L3.05624323,8.78807184 L3.82184388,5.43182579 C3.95812613,4.83393032 3.62300921,4.22900735 3.07336824,4.08064896 L2.97379708,4.05376597 C2.90693777,4.03569525 2.84028355,4.02565596 2.77393696,4.02219798 L2.77475732,4 C2.77475732,4 2.75835013,4.00803143 2.72994517,4.02197489 C2.41492707,4.02074787 1.95460275,4.35327145 1.95460275,4.35327145 C1.06051327,5.03136968 -0.16325825,5.93066693 0.018041234,6.35900995 C0.292554085,7.00777115 1.63281668,5.30075728 1.31185096,6.70837723 L0.966069364,8.22397531 L0.200571258,11.5802214 C0.0641864647,12.1782284 0.354798874,12.7711042 0.90454239,12.9194626 L1.004011,12.9463456 C1.07087031,12.9644163 1.13772962,12.9745671 1.20407621,12.977802 L1.20305076,13 C1.20305076,13 1.21966304,12.9920801 1.24796545,12.9780251 C1.56308611,12.9793637 2.02330787,12.6467286 2.02330787,12.6467286 C2.91760245,11.9686303 4.16362622,11.0753566 3.98222419,10.6469021 C3.70750625,9.99825242 2.38949592,11.7112899 2.71046163,10.303893" id="Fill-1"></path>
                <path d="M3.5,0 C4.32842857,0 5,0.671571429 5,1.5 C5,2.32842857 4.32842857,3 3.5,3 C2.67167857,3 2,2.32842857 2,1.5 C2,0.671571429 2.67167857,0 3.5,0" id="Fill-3"></path>
            </g>
        </g>
    </g>
</svg>