<svg xmlns="http://www.w3.org/2000/svg" viewBox="0 0 43.63 27.12">
  <path d="M14.23,2.69a11.47,11.47,0,0,1,1.41.09,11.2,11.2,0,0,1,6.19,2.86L22.5,6.25l0.38-.35a11.85,11.85,0,0,1,6.76-3.15q0.57-.06,1.12-0.05a11.31,11.31,0,0,1,1.34,22.54,11.75,11.75,0,0,1-1.34.08,11.19,11.19,0,0,1-6.68-2.19h0c-0.21-.15-1.7-1.4-1.72-1.41-2.19-2-8-7.49-6-10.06a3.2,3.2,0,0,1,2.5-1.12,2.84,2.84,0,0,1,1,.18,2.08,2.08,0,0,1,1.48,2.14v0.43h2.25V12.84a2.1,2.1,0,0,1,1.51-2.14,3.29,3.29,0,0,1,1.08-.18,3.16,3.16,0,0,1,2.48,1.12c1.24,1.59-.32,4.53-4.63,8.73l1.47,1.32A26,26,0,0,0,30,16.18c1.28-2.32,1.34-4.25.16-5.76a5.17,5.17,0,0,0-4.06-1.88,5.29,5.29,0,0,0-1.72.28,4.33,4.33,0,0,0-1.87,1.23l0,0,0,0A4.32,4.32,0,0,0,20.6,8.83a5.28,5.28,0,0,0-1.72-.28,5.18,5.18,0,0,0-4.06,1.88c-3.12,4,3.11,9.81,6.1,12.61l0,0,0,0A11.2,11.2,0,0,1,17,25a11.88,11.88,0,0,1-2.8.34,11.31,11.31,0,0,1,0-22.61M30.77,0.44c-0.44,0-.9,0-1.34.07a13.67,13.67,0,0,0-6.91,2.77A13.43,13.43,0,0,0,15.92.54,13.73,13.73,0,0,0,14.23.44a13.56,13.56,0,0,0,0,27.12,14.16,14.16,0,0,0,3.33-.4,13.41,13.41,0,0,0,4.67-2.22l0,0,0.22-.16,0.25,0.19a13.43,13.43,0,0,0,8,2.63,14.07,14.07,0,0,0,1.59-.09,13.56,13.56,0,0,0-1.59-27h0Z"
    transform="translate(-0.69 -0.44)"
    style="fill:#49b9ea"/>
</svg>
