<?xml version="1.0" encoding="UTF-8"?>
<svg width="20px" height="25px" viewBox="0 0 20 25" version="1.1" xmlns="http://www.w3.org/2000/svg" xmlns:xlink="http://www.w3.org/1999/xlink">
    <!-- Generator: Sketch 46.2 (44496) - http://www.bohemiancoding.com/sketch -->
    <title>Page 1</title>
    <desc>Created with Sketch.</desc>
    <defs>
        <polygon id="path-1" points="19.617 20.148 19.617 0 1.35525272e-20 0 1.35525272e-20 25 19.617 25 19.617 20.148 -2.40096368e-05 20.148 -2.40096368e-05 0 19.617224 0 19.617224 20.148"></polygon>
        <path d="M2.2141,18.412 C2.5261,18.066 3.0381,17.576 3.8761,16.912 C4.0841,16.748 4.2051,16.497 4.2051,16.232 L4.2041,9.345 C4.2061,9.309 4.4621,5.791 8.1611,4.464 C8.1611,4.464 9.8571,3.879 11.4571,4.464 C15.1211,5.778 15.4031,9.204 15.4121,9.292 L15.4121,16.232 C15.4121,16.497 15.5331,16.748 15.7411,16.912 C16.5791,17.576 17.0911,18.066 17.4031,18.412 L2.2141,18.412 Z M17.1471,15.816 L17.1461,9.239 C17.1341,9.057 16.8351,4.931 12.6511,3.074 L12.6511,2.842 C12.6511,1.275 11.3761,0 9.8091,0 C8.2421,0 6.9671,1.275 6.9671,2.842 L6.9671,3.074 C2.7831,4.931 2.4831,9.059 2.4701,9.292 L2.4701,15.816 C0.2761,17.612 -0.0069,18.499 0.0001,19.076 C0.0051,19.442 0.1641,19.778 0.4251,19.974 C0.5761,20.087 0.7581,20.148 0.9461,20.148 L18.6711,20.148 C18.8591,20.148 19.0411,20.087 19.1921,19.974 C19.4531,19.778 19.6121,19.442 19.6171,19.076 C19.6241,18.499 19.3411,17.612 17.1471,15.816 L17.1471,15.816 Z" id="path-3"></path>
    </defs>
    <g id="Symbols" stroke="none" stroke-width="1" fill="none" fill-rule="evenodd">
        <g id="menu" transform="translate(-981.000000, -17.000000)">
            <g id="Page-1" transform="translate(981.000000, 17.000000)">
                <path d="M9.8088,24.9999 C8.2258,24.9999 6.9378,23.7119 6.9378,22.1289 C6.9378,21.7609 7.2358,21.4629 7.6038,21.4629 L12.0138,21.4629 C12.3818,21.4629 12.6798,21.7609 12.6798,22.1289 C12.6798,23.7119 11.3918,24.9999 9.8088,24.9999" id="Fill-1" fill="#BDC0C9"></path>
                <g id="Group-5">
                    <mask id="mask-2" fill="white">
                        <use xlink:href="#path-1"></use>
                    </mask>
                    <g id="Clip-4"></g>
                    <mask id="mask-4" fill="white">
                        <use xlink:href="#path-3"></use>
                    </mask>
                    <use id="Fill-3" fill="#BDC0C9" xlink:href="#path-3"></use>
                </g>
            </g>
        </g>
    </g>
</svg>