<svg width="32px" height="32px" viewBox="0 0 32 32" version="1.1" xmlns="http://www.w3.org/2000/svg"
     xmlns:xlink="http://www.w3.org/1999/xlink">
  <defs>
    <path
      d="M0,16 C0,7.163 7.163,0 16,0 C24.837,0 32,7.163 32,16 C32,24.837 24.837,32 16,32 C7.163,32 0,24.837 0,16 Z M15.999,7.466 C16,7.466 16.001,7.466 16.001,7.466 L15.999,7.466 Z M15.998,7.466 L15.999,7.466 L15.998,7.466 Z M12.553,22.942 C11.72,22.903 11.269,22.765 10.968,22.648 C10.57,22.493 10.286,22.308 9.987,22.01 C9.688,21.711 9.503,21.427 9.348,21.029 C9.232,20.728 9.092,20.276 9.054,19.445 C9.013,18.545 9.005,18.275 9.005,15.996 C9.005,13.717 9.013,13.449 9.054,12.549 C9.092,11.717 9.232,11.265 9.348,10.965 C9.503,10.566 9.688,10.282 9.987,9.983 C10.286,9.684 10.57,9.5 10.968,9.345 C11.268,9.227 11.72,9.088 12.553,9.051 C13.34,9.014 13.645,9.004 15.236,9.002 L15.236,9.005 C15.462,9.004 15.716,9.005 16.001,9.005 C18.279,9.005 18.549,9.013 19.449,9.053 C20.281,9.092 20.733,9.23 21.033,9.348 C21.431,9.502 21.716,9.687 22.014,9.986 C22.312,10.284 22.498,10.569 22.652,10.967 C22.77,11.267 22.909,11.719 22.947,12.551 C22.987,13.451 22.996,13.721 22.996,15.999 C22.996,18.275 22.987,18.546 22.947,19.445 C22.908,20.277 22.77,20.729 22.652,21.029 C22.498,21.427 22.312,21.711 22.014,22.01 C21.716,22.308 21.432,22.493 21.033,22.648 C20.733,22.765 20.281,22.904 19.449,22.942 C18.549,22.982 18.279,22.992 16.001,22.992 C13.722,22.992 13.452,22.982 12.553,22.942 Z M19.532,11.445 C19.532,12.011 19.99,12.469 20.555,12.469 C21.122,12.469 21.58,12.011 21.58,11.445 C21.58,10.879 21.122,10.421 20.555,10.421 C19.99,10.421 19.532,10.879 19.532,11.445 Z M11.618,16 C11.618,18.42 13.581,20.382 16.001,20.382 C18.421,20.382 20.383,18.42 20.383,16 C20.383,13.58 18.421,11.618 16.001,11.618 C13.581,11.618 11.618,13.58 11.618,16 Z M13.157,16 C13.157,14.429 14.43,13.155 16.001,13.155 C17.572,13.155 18.846,14.429 18.846,16 C18.846,17.571 17.572,18.844 16.001,18.844 C14.43,18.844 13.157,17.571 13.157,16 Z M15.999,7.466 C13.683,7.466 13.392,7.476 12.482,7.518 C11.574,7.56 10.953,7.704 10.411,7.915 C9.85,8.132 9.374,8.424 8.9,8.898 C8.424,9.373 8.133,9.849 7.914,10.41 C7.703,10.953 7.559,11.573 7.518,12.481 C7.478,13.391 7.467,13.683 7.467,16 C7.467,18.318 7.477,18.608 7.518,19.518 C7.56,20.426 7.704,21.047 7.915,21.589 C8.133,22.15 8.424,22.626 8.899,23.1 C9.373,23.576 9.849,23.867 10.41,24.086 C10.952,24.296 11.574,24.441 12.482,24.482 C13.391,24.523 13.682,24.533 16,24.533 C18.317,24.533 18.607,24.523 19.518,24.482 C20.426,24.441 21.047,24.296 21.59,24.086 C22.151,23.867 22.626,23.576 23.101,23.1 C23.575,22.626 23.867,22.15 24.085,21.589 C24.295,21.047 24.439,20.426 24.482,19.518 C24.523,18.608 24.534,18.318 24.534,16 C24.534,13.683 24.523,13.392 24.482,12.481 C24.439,11.573 24.295,10.953 24.085,10.41 C23.867,9.849 23.575,9.373 23.101,8.898 C22.626,8.424 22.151,8.132 21.59,7.915 C21.045,7.704 20.425,7.56 19.516,7.518 C18.606,7.476 18.316,7.466 15.999,7.466 Z"
      id="path-1"/>
  </defs>
  <g id="instagram" stroke="none" stroke-width="1" fill="none" fill-rule="evenodd">
    <mask id="mask-2" fill="white">
      <use xlink:href="#path-1"/>
    </mask>
    <use id="Combined-Shape" fill="#E93D5A" xlink:href="#path-1"/>
  </g>
</svg>
