<svg width="32px" height="32px" viewBox="0 0 32 32" version="1.1" xmlns="http://www.w3.org/2000/svg" xmlns:xlink="http://www.w3.org/1999/xlink"><defs><path d="M16.5125977,8 C16.9275977,8 17.6735977,8.053 18.4735977,8.409 C18.9335977,8.613 19.3465977,8.89 19.7015977,9.231 C20.1255977,9.639 20.4715977,10.142 20.7285977,10.726 C21.1035977,11.579 21.0145977,13.017 20.9425977,14.172 L20.9405977,14.221 C20.9325977,14.335 20.9255977,14.445 20.9205977,14.551 C20.9685977,14.574 21.0435977,14.597 21.1515977,14.603 C21.3535977,14.594 21.5885977,14.525 21.8505977,14.4 C21.9735977,14.342 22.1025977,14.33 22.1905977,14.33 C22.3185977,14.33 22.4445977,14.355 22.5555977,14.401 C22.8845977,14.52 23.0895977,14.763 23.0945977,15.035 C23.0975977,15.149 23.0635977,15.322 22.8915977,15.502 C22.7465977,15.653 22.5275977,15.785 22.2215977,15.908 C22.1505977,15.936 22.0665977,15.963 21.9755977,15.992 C21.6645977,16.093 21.1945977,16.244 21.0725977,16.537 C21.0105977,16.685 21.0365977,16.88 21.1515977,17.116 C21.2015977,17.235 22.2125977,19.572 24.4575977,19.947 C24.6555977,19.98 24.7975977,20.16 24.7855977,20.363 C24.7835977,20.423 24.7685977,20.481 24.7445977,20.538 C24.6645977,20.728 24.4775977,20.889 24.1765977,21.03 C23.8075977,21.205 23.2545977,21.351 22.5345977,21.465 C22.4985977,21.536 22.4595977,21.717 22.4345977,21.831 C22.4075977,21.961 22.3785977,22.09 22.3385977,22.227 C22.2785977,22.435 22.1215977,22.554 21.9075977,22.554 C21.7915977,22.554 21.6645977,22.538 21.5025977,22.505 C21.2535977,22.457 20.9745977,22.411 20.6215977,22.411 C20.4175977,22.411 20.2045977,22.429 19.9915977,22.465 C19.5805977,22.534 19.2265977,22.788 18.8165977,23.081 C18.2145977,23.513 17.5355977,24 16.4965977,24 C16.4515977,24 16.4095977,23.999 16.3745977,23.997 C16.3465977,23.999 16.3185977,24 16.2895977,24 C15.2515977,24 14.5715977,23.513 13.9715977,23.082 C13.5615977,22.788 13.2065977,22.534 12.7955977,22.465 C12.5815977,22.429 12.3695977,22.411 12.1655977,22.411 C11.7965977,22.411 11.4995977,22.469 11.2835977,22.513 C11.1365977,22.542 11.0095977,22.567 10.8975977,22.567 C10.6055977,22.567 10.4925977,22.386 10.4475977,22.234 C10.4075977,22.094 10.3785977,21.962 10.3515977,21.834 C10.3255977,21.713 10.2875977,21.537 10.2505977,21.467 C9.53159772,21.353 8.97959772,21.206 8.61059772,21.032 C8.30759772,20.89 8.12159772,20.728 8.04159772,20.538 C8.01659772,20.48 8.00359772,20.422 8.00059772,20.363 C7.98959772,20.16 8.13159772,19.981 8.32959772,19.948 C8.83459772,19.863 9.31559772,19.672 9.76159772,19.381 C10.1265977,19.142 10.4695977,18.833 10.7815977,18.465 C11.3295977,17.818 11.5975977,17.204 11.6265977,17.136 C11.7505977,16.88 11.7765977,16.685 11.7145977,16.537 C11.5915977,16.244 11.1215977,16.093 10.8105977,15.993 C10.7205977,15.964 10.6355977,15.936 10.5645977,15.908 C10.2935977,15.8 10.0835977,15.677 9.93959772,15.545 C9.67959772,15.304 9.67859772,15.066 9.70059772,14.945 C9.73559772,14.764 9.86159772,14.6 10.0555977,14.484 C10.2105977,14.392 10.3895977,14.342 10.5585977,14.342 C10.6635977,14.342 10.7595977,14.361 10.8435977,14.401 C11.1275977,14.536 11.3795977,14.604 11.5905977,14.604 C11.7225977,14.604 11.8115977,14.577 11.8665977,14.551 C11.8595977,14.426 11.8505977,14.297 11.8435977,14.173 C11.7715977,13.017 11.6825977,11.581 12.0575977,10.728 C12.3145977,10.146 12.6585977,9.645 13.0815977,9.238 C13.4345977,8.897 13.8475977,8.619 14.3055977,8.415 C15.1065977,8.057 15.8515977,8.003 16.2245977,8.003 C16.2395977,8.003 16.4095977,8.001 16.5125977,8 Z" id="path-1"/></defs><g id="snapchat" stroke="none" stroke-width="1" fill="none" fill-rule="evenodd"><circle id="Oval" fill="#FFE400" cx="16" cy="16" r="16"/><mask id="mask-2" fill="white"><use xlink:href="#path-1"/></mask><use id="Clip-2" stroke="#000000" fill="#FFFFFF" xlink:href="#path-1"/></g></svg>
