<svg width="32px" height="32px" viewBox="0 0 32 32" version="1.1" xmlns="http://www.w3.org/2000/svg"><g id="twitter" stroke="none" stroke-width="1" fill="#55ACEE" fill-rule="evenodd"><path class="circle-path" d="M0,16 C0,24.837 7.163,32 16,32 C24.837,32 32,24.837 32,16 C32,7.163 24.837,0 16,0 C7.163,0 0,7.163 0,16 Z" id="Clip-2"/><path d="M15.5344877,13.405 L15.567228,13.958 L15.0433832,13.891 C13.1378976,13.631 11.4737549,12.749 10.0603092,11.27 L9.36902116,10.535 L9.19128809,11.077 C8.8143069,12.286 9.05471426,13.563 9.8404815,14.422 C10.2586219,14.896 10.1641428,14.964 9.44198526,14.682 C9.19128809,14.592 8.97146035,14.523 8.95088073,14.558 C8.87698119,14.637 9.12767836,15.665 9.32692648,16.071 C9.59913871,16.637 10.153853,17.19 10.7609517,17.518 L11.2735713,17.778 L10.667408,17.789 C10.0808889,17.789 10.0603092,17.8 10.1220481,18.038 C10.331586,18.772 11.159448,19.552 12.0808536,19.89 L12.730047,20.128 L12.1641075,20.49 C11.3259558,21.009 10.3428113,21.303 9.35873135,21.326 C8.887271,21.336 8.5,21.382 8.5,21.416 C8.5,21.529 9.77687177,22.162 10.5205443,22.41 C12.7506266,23.145 15.3997848,22.828 17.3875888,21.574 C18.8010344,20.681 20.21448,18.907 20.8739632,17.19 C21.2303648,16.275 21.5867664,14.603 21.5867664,13.801 C21.5867664,13.281 21.6176358,13.213 22.2041549,12.591 C22.5493313,12.23 22.8748634,11.834 22.9366023,11.722 C23.0413712,11.507 23.0310814,11.507 22.4969468,11.699 C21.607346,12.038 21.4819974,11.993 21.9216529,11.484 C22.2453142,11.122 22.6325852,10.467 22.6325852,10.275 C22.6325852,10.241 22.4763672,10.298 22.2986341,10.4 C22.1096758,10.512 21.6905999,10.682 21.3772285,10.784 L20.8122244,10.976 L20.2986694,10.603 C20.0161673,10.4 19.6176711,10.174 19.4081332,10.106 C19.1677258,10.035 18.8702568,10 18.5718523,10 C18.2070318,10 17.8412759,10.052 17.5765471,10.151 C16.2678705,10.66 15.4418794,11.97 15.5344877,13.405 Z" id="Clip-5" fill="#FFFFFF"/></g></svg>
