<svg xmlns="http://www.w3.org/2000/svg" xmlns:xlink="http://www.w3.org/1999/xlink" viewBox="0 0 42 42"><defs><clipPath id="a" transform="translate(-89.35 -589.98)"><circle cx="110.35" cy="610.98" r="16" style="fill:none"/></clipPath><clipPath id="b" transform="translate(-89.35 -589.98)"><rect x="94.35" y="594.98" width="32" height="32" style="fill:none"/></clipPath><clipPath id="c" transform="translate(-89.35 -589.98)"><path d="M110.37,608.39l0,0.55-0.56-.07a9.1,9.1,0,0,1-5.33-2.62l-0.74-.73-0.19.54a3.26,3.26,0,0,0,.69,3.34c0.45,0.47.35,0.54-.43,0.26a1.32,1.32,0,0,0-.53-0.12,4,4,0,0,0,.4,1.51,3.61,3.61,0,0,0,1.53,1.45l0.55,0.26h-0.65c-0.63,0-.65,0-0.58.25a3.38,3.38,0,0,0,2.09,1.85l0.69,0.24-0.6.36a6.3,6.3,0,0,1-3,.84,3.31,3.31,0,0,0-.92.09,8.51,8.51,0,0,0,2.16,1,9.45,9.45,0,0,0,7.34-.84,9.83,9.83,0,0,0,3.73-4.38,11.65,11.65,0,0,0,.76-3.39,1.31,1.31,0,0,1,.66-1.21,7.38,7.38,0,0,0,.78-0.87c0.11-.21.1-0.21-0.47,0-1,.34-1.09.29-0.62-0.21a3.29,3.29,0,0,0,.76-1.21,0.6,0.6,0,0,0-.36.12,6.24,6.24,0,0,1-1,.38L116,606l-0.55-.37a4.56,4.56,0,0,0-1-.5,3.82,3.82,0,0,0-2,0A3.23,3.23,0,0,0,110.37,608.39Z" style="fill:none;clip-rule:evenodd"/></clipPath></defs><title>twitter2</title><g style="clip-path:url(#a)"><g style="clip-path:url(#b)"><rect width="42" height="42" style="fill:#55acee"/></g></g><g style="clip-path:url(#c)"><g style="clip-path:url(#b)"><rect x="8.5" y="10" width="25.49" height="22.8" style="fill:#fff"/></g></g></svg>