<?xml version="1.0" encoding="UTF-8"?>
<svg width="19px" height="17px" viewBox="0 0 19 17" version="1.1" xmlns="http://www.w3.org/2000/svg">
  <!-- Generator: Sketch 52.2 (67145) - http://www.bohemiancoding.com/sketch -->
  <title>blocks</title>
  <desc>Created with Sketch.</desc>
  <g id="blocks" stroke="none" stroke-width="1" fill="none" fill-rule="evenodd">
    <g id="Group-20" transform="translate(1.000000, 1.000000)" fill="#56A4D6">
      <path
        d="M12.2441814,5.89263857 C10.7953139,5.89263857 9.62063439,4.71795911 9.62063439,3.26909157 L9.62063439,2.623547 C9.62063439,1.17467946 10.7953139,-8.8817842e-16 12.2441814,-8.8817842e-16 L14.2366148,-8.8817842e-16 C15.6854823,-8.8817842e-16 16.8601618,1.17467946 16.8601618,2.623547 L16.8601618,3.26909157 C16.8601618,4.71795911 15.6854823,5.89263857 14.2366148,5.89263857"
        id="Fill-15-Copy"></path>
      <path
        d="M12.2441814,14.5512095 C10.7953139,14.5512095 9.62063439,13.3765301 9.62063439,11.9276625 L9.62063439,11.282118 C9.62063439,9.83325041 10.7953139,8.65857095 12.2441814,8.65857095 L14.2366148,8.65857095 C15.6854823,8.65857095 16.8601618,9.83325041 16.8601618,11.282118 L16.8601618,11.9276625 C16.8601618,13.3765301 15.6854823,14.5512095 14.2366148,14.5512095"
        id="Fill-15-Copy-3"></path>
      <path
        d="M2.623547,5.89263857 C1.17467946,5.89263857 0,4.71795911 0,3.26909157 L0,2.623547 C0,1.17467946 1.17467946,0 2.623547,0 L4.61598038,0 C6.06484792,0 7.23952738,1.17467946 7.23952738,2.623547 L7.23952738,3.26909157 C7.23952738,4.71795911 6.06484792,5.89263857 4.61598038,5.89263857"
        id="Fill-15-Copy-2"></path>
      <path
        d="M2.623547,14.5512095 C1.17467946,14.5512095 0,13.3765301 0,11.9276625 L0,11.282118 C0,9.83325041 1.17467946,8.65857095 2.623547,8.65857095 L4.61598038,8.65857095 C6.06484792,8.65857095 7.23952738,9.83325041 7.23952738,11.282118 L7.23952738,11.9276625 C7.23952738,13.3765301 6.06484792,14.5512095 4.61598038,14.5512095"
        id="Fill-15-Copy-4"></path>
    </g>
  </g>
</svg>
