<?xml version="1.0" encoding="utf-8"?>
<!-- Generator: Adobe Illustrator 19.2.0, SVG Export Plug-In . SVG Version: 6.00 Build 0)  -->
<svg version="1.1" id="Layer_1" xmlns="http://www.w3.org/2000/svg" xmlns:xlink="http://www.w3.org/1999/xlink" x="0px" y="0px"
	 viewBox="0 0 44 46" style="enable-background:new 0 0 44 46;" xml:space="preserve">
<style type="text/css">
	.st0{display:none;fill:#020202;}
	.st1{fill:#020202;}
</style>
<title>Page 1 Copy 2</title>
<desc>Created with Sketch.</desc>
<g id="Brand-first-time">
	<g id="Overview---full-menu" transform="translate(-559.000000, -432.000000)">
		<g id="Group" transform="translate(540.000000, 407.000000)">
			<g id="Page-1-Copy-2" transform="translate(19.000000, 25.000000)">
				<path class="st0" d="M12.3,36.4c-1,0-1.8-0.3-2.5-0.9c-0.7-0.7-1.1-1.8-1.1-3.1c0-0.9,0-14.1,0-16.5l0-0.4
					c0-2.7,1.9-3.7,3.7-3.7h1.8v-1.3c0-0.7,0.6-1.2,1.2-1.2c0.7,0,1.2,0.5,1.2,1.2v1.3h10.6v-1.3c0-0.7,0.6-1.2,1.2-1.2
					s1.2,0.5,1.2,1.2v1.3h1.9c1.5,0,2.3,0.6,2.8,1.1c0.9,1,1,2.2,1,2.6v0.9c0,9.5,0,15.1,0,16.5c0,2.5-1.9,3.5-3.3,3.6v0
					C32,36.3,13.1,36.4,12.3,36.4L12.3,36.4z M11.1,32.3c0,0.7,0.1,1.2,0.4,1.4c0.2,0.2,0.4,0.2,0.7,0.2l19.5,0c0.5,0,1-0.2,1-1.2
					c0-1.2,0-5.3,0-9.2l0-3.3H11.1V32.3z M32.8,17.8v-2.4c0-0.2,0-0.7-0.3-1c-0.2-0.2-0.5-0.3-1-0.3l-1.9,0v1.3
					c0,0.7-0.6,1.2-1.2,1.2s-1.2-0.5-1.2-1.2v-1.3H16.6v1.3c0,0.7-0.6,1.2-1.2,1.2c-0.7,0-1.2-0.5-1.2-1.2v-1.3h-1.8
					c-0.9,0-1.2,0.4-1.2,1.3v2.4H32.8z"/>
				<path id="Fill-1" class="st1" d="M33,32.8c0,1.2-0.8,1.3-1.2,1.4c0,0-18.7,0-19.5,0c-0.4,0-0.7-0.1-0.9-0.3
					c-0.3-0.3-0.5-0.8-0.5-1.6V20H33C33,24.6,33.1,31.1,33,32.8L33,32.8z M10.9,15.4c0-1.1,0.4-1.5,1.4-1.5h2v1.5c0,0.6,0.5,1,1,1
					c0.6,0,1-0.5,1-1v-1.5h1.4h9.6v1.5c0,0.6,0.5,1,1,1s1-0.5,1-1v-1.5c1.3,0,2.1,0,2.1,0c0.5,0,0.9,0.1,1.1,0.4
					c0.3,0.3,0.4,0.9,0.4,1.1v0.1V18H10.9V15.4L10.9,15.4z M35.1,15.4c0-0.3,0-1.5-0.9-2.5c-0.4-0.5-1.2-1-2.6-1.1h-2.1v-1.5
					c0-0.6-0.5-1-1-1s-1,0.5-1,1v1.5h-11v-1.5c0-0.6-0.5-1-1-1c-0.6,0-1,0.5-1,1v1.5h-2c-1.7,0-3.5,0.9-3.5,3.5c0,0.2,0,15.8,0,16.9
					c0,1.3,0.4,2.3,1.1,3c0.6,0.6,1.4,0.9,2.3,0.9h0c0.8,0,19.5,0,19.5,0h0c1.3,0,3.3-0.9,3.3-3.4C35.1,30.3,35.1,16.1,35.1,15.4
					L35.1,15.4z"/>
			</g>
		</g>
	</g>
</g>
</svg>
