<?xml version="1.0" encoding="UTF-8"?>
<svg width="25px" height="24px" viewBox="0 0 25 24" version="1.1" xmlns="http://www.w3.org/2000/svg" xmlns:xlink="http://www.w3.org/1999/xlink">
    <!-- Generator: Sketch 46.2 (44496) - http://www.bohemiancoding.com/sketch -->
    <title>help</title>
    <desc>Created with Sketch.</desc>
    <defs></defs>
    <g id="Symbols" stroke="none" stroke-width="1" fill="none" fill-rule="evenodd">
        <g id="menu" transform="translate(-1060.000000, -17.000000)" fill="#BDC0C9">
            <g id="help" transform="translate(1060.000000, 17.000000)">
                <g id="Page-1" transform="translate(0.625000, 0.000000)">
                    <path d="M11.875,1.84615385 C6.36125,1.84615385 1.875,6.26338462 1.875,11.6923077 C1.875,17.1212308 6.36125,21.5384615 11.875,21.5384615 C17.38875,21.5384615 21.875,17.1212308 21.875,11.6923077 C21.875,6.26338462 17.38875,1.84615385 11.875,1.84615385 M11.875,23.3846154 C5.326875,23.3846154 0,18.1396923 0,11.6923077 C0,5.24492308 5.326875,0 11.875,0 C18.423125,0 23.75,5.24492308 23.75,11.6923077 C23.75,18.1396923 18.423125,23.3846154 11.875,23.3846154" id="Fill-1"></path>
                    <path d="M11.875,16.3022769 C11.356875,16.3022769 10.9375,15.8893538 10.9375,15.3792 L10.9375,12.9982769 C10.9375,12.4881231 11.356875,12.0752 11.875,12.0752 C13.659375,12.0752 15.11125,10.6456615 15.11125,8.88873846 C15.11125,7.1312 13.659375,5.70166154 11.875,5.70166154 C10.090625,5.70166154 8.63875,7.1312 8.63875,8.88873846 C8.63875,9.39827692 8.21875,9.81181538 7.70125,9.81181538 C7.183125,9.81181538 6.76375,9.39827692 6.76375,8.88873846 C6.76375,6.11335385 9.056875,3.85550769 11.875,3.85550769 C14.693125,3.85550769 16.98625,6.11335385 16.98625,8.88873846 C16.98625,11.3484308 15.184375,13.4019692 12.8125,13.8364308 L12.8125,15.3792 C12.8125,15.8893538 12.393125,16.3022769 11.875,16.3022769" id="Fill-3"></path>
                    <path d="M11.8740625,19.5279385 C11.6303125,19.5279385 11.3865625,19.4294769 11.2115625,19.2571692 C11.0365625,19.0848615 10.9365625,18.8510154 10.9365625,18.6048615 C10.9365625,18.5433231 10.9428125,18.4817846 10.9553125,18.4264 C10.9678125,18.3648615 10.9865625,18.3094769 11.0115625,18.2540923 C11.0303125,18.1987077 11.0615625,18.1433231 11.0928125,18.0940923 C11.1303125,18.0448615 11.1678125,17.9956308 11.2115625,17.9525538 C11.5615625,17.6079385 12.1865625,17.6079385 12.5365625,17.9525538 C12.5803125,17.9956308 12.6178125,18.0448615 12.6553125,18.0940923 C12.6865625,18.1433231 12.7178125,18.1987077 12.7428125,18.2540923 C12.7615625,18.3094769 12.7803125,18.3648615 12.7928125,18.4264 C12.8053125,18.4817846 12.8115625,18.5433231 12.8115625,18.6048615 C12.8115625,18.6664 12.8053125,18.7279385 12.7928125,18.7833231 C12.7803125,18.8448615 12.7615625,18.9002462 12.7428125,18.9556308 C12.7178125,19.0171692 12.6865625,19.0664 12.6553125,19.1156308 C12.6178125,19.1710154 12.5803125,19.2140923 12.5365625,19.2571692 C12.3615625,19.4294769 12.1240625,19.5279385 11.8740625,19.5279385" id="Fill-5"></path>
                </g>
            </g>
        </g>
    </g>
</svg>