<svg viewBox="0 0 45 28" version="1.1" xmlns="http://www.w3.org/2000/svg">
    <g id="gsLogo" stroke="none" stroke-width="1" fill="none" fill-rule="evenodd">
      <path class="gs-logo--path" d="M22.292,2.972 C24.716,1.049 27.714,0 30.832,0 C38.415,0 44.584,6.169 44.584,13.752 C44.584,21.335 38.415,27.505 30.832,27.505 C27.714,27.505 24.717,26.455 22.292,24.532 C19.868,26.455 16.87,27.505 13.752,27.505 C6.169,27.505 0,21.335 0,13.752 C0,6.169 6.169,0 13.752,0 C16.87,0 19.868,1.05 22.292,2.972 Z M23.827,22.975 C25.811,24.433 28.206,25.229 30.694,25.229 C37.098,25.229 42.309,20.019 42.309,13.614 C42.309,7.21 37.098,2 30.694,2 C27.794,2 25.016,3.075 22.874,5.027 L22.154,5.683 L21.434,5.027 C19.6528131,3.40380819 17.4325359,2.38704495 15.0669951,2.09056086 C14.58781,2.03050241 14.1026642,2 13.614,2 C7.21,2 2,7.21 2,13.614 C2,20.019 7.21,25.229 13.614,25.229 C16.105,25.229 18.502,24.431 20.487,22.971 C17.307,20 10.967,13.998 14.178,9.892 C15.511,8.187 18.045,7.488 20.204,8.233 C21,8.507 21.66,8.947 22.159,9.515 C22.658,8.947 23.319,8.507 24.114,8.233 C26.272,7.489 28.807,8.187 30.141,9.892 C32.919,13.445 28.549,18.413 25.26,21.612 L23.659,20.184 C26.303,17.609 30.156,13.381 28.457,11.208 C27.68,10.215 26.111,9.805 24.811,10.254 C24.103,10.498 23.263,11.07 23.228,12.411 C23.229,12.44 23.229,12.469 23.229,12.498 L23.229,13.566 L21.091,13.566 L21.09,12.498 C21.09,12.469 21.09,12.44 21.09,12.411 C21.055,11.07 20.215,10.498 19.508,10.254 C19.152,10.131 18.777,10.073 18.403,10.073 C17.409,10.073 16.426,10.487 15.862,11.208 C13.819,13.821 19.808,19.413 22.062,21.517 C22.083,21.537 23.824,22.976 23.827,22.975 Z"/>
    </g>
</svg>
