<svg xmlns="http://www.w3.org/2000/svg" viewBox="0 0 342.25 211.36">
  <title>logo-3</title>
  <path d="M666,180c-29.05-33-91.76-52.67-144-12.44C472.26,130.16,411,143,378.07,180.08c-33.88,38.19-36.48,94-5,135,15.41,20.1,35.76,33.38,60.59,38.66,32.32,6.86,62,.27,88.49-20.16,23.35,17.13,49,25.31,77.86,21.83s52.39-16.59,70.38-39.28C701.84,276.47,701.22,220,666,180Zm-5.67,121.86C645.45,323.37,624.44,336,598.57,339s-49.29-4.11-69.51-21.22a331.84,331.84,0,0,1-41.17-41.34c-6.27-7.55-12-15.57-15.25-25a34.48,34.48,0,0,1-1.55-6.77c-1.61-12.42,7.2-18,15.75-20.22a29.93,29.93,0,0,1,11.3-.24c10.05,1.43,15.51,7.79,15.93,17.94,0.1,2.48,0,5,0,8.14h15.76c0.37-4,.71-7.76,1.07-11.49,0.77-7.93,6-12.18,12.92-14.19a25.43,25.43,0,0,1,18.88,1.71c9.52,4.77,12.78,12.39,9.76,22.81-2.5,8.64-7.13,16.17-12.72,23-7.16,8.74-14.9,17-22.45,25.43a29.71,29.71,0,0,1-4,3.09L545.93,312c4.63-4.66,9.11-8.87,13.24-13.39,7.74-8.48,15.17-17.26,21.06-27.16,4.17-7,7.68-14.28,9.2-22.47,2.53-13.63-1.73-24.63-12.29-33.18-12.3-10-32.51-11.73-46.09-3.79-3.12,1.82-5.91,4.2-8.53,6.08-5.14-3-9.86-6.54-15.17-8.59-17.4-6.73-42,.32-50.55,19.47-3.64,8.21-3.24,16.48-.76,24.83,3.53,11.86,10.32,21.89,17.76,31.54,9.18,11.92,20.08,22.23,30.75,32.75,1.29,1.27,2.7,2.44,4.06,3.66-21.15,19.59-68.59,27.26-104.12,1.07-41-30.23-47.57-85-20.09-124.27,25.12-35.92,89.33-56.61,137.77-9.4,5.22-4.07,10.31-8.33,15.7-12.17,12.63-9,26.9-13.33,42.24-14.92A82.75,82.75,0,0,1,620.55,168c23,9.39,39.84,25.47,49.1,48.44C681.67,246.32,678.75,275.22,660.34,301.84Z"
    transform="translate(-350.98 -145.03)"
    style="fill:#0d7899"/>
</svg>
