<?xml version="1.0" encoding="UTF-8"?>
<svg width="13px" height="13px" viewBox="0 0 13 13" version="1.1" xmlns="http://www.w3.org/2000/svg" xmlns:xlink="http://www.w3.org/1999/xlink">
    <!-- Generator: Sketch 49.3 (51167) - http://www.bohemiancoding.com/sketch -->
    <title>plus</title>
    <desc>Created with Sketch.</desc>
    <defs></defs>
    <g id="plus" stroke="none" stroke-width="1" fill="none" fill-rule="evenodd">
        <path d="M7.5,5.5 L10.96875,5.5 C11.5382936,5.5 12,5.94771525 12,6.5 C12,7.05228475 11.5382936,7.5 10.96875,7.5 L7.5,7.5 L7.5,10.96875 C7.5,11.5382936 7.05228475,12 6.5,12 C5.94771525,12 5.5,11.5382936 5.5,10.96875 L5.5,7.5 L2.03125,7.5 C1.46170635,7.5 1,7.05228475 1,6.5 C1,5.94771525 1.46170635,5.5 2.03125,5.5 L5.5,5.5 L5.5,2.03125 C5.5,1.46170635 5.94771525,1 6.5,1 C7.05228475,1 7.5,1.46170635 7.5,2.03125 L7.5,5.5 Z" id="Combined-Shape" fill="#BDC0C9"></path>
    </g>
</svg>