<svg width="31px" height="31px" viewBox="0 0 31 31" version="1.1" xmlns="http://www.w3.org/2000/svg">
  <g id="Page-1">
    <path
      d="M30.7156,15.3578 C30.7156,23.8398 23.8396,30.7158 15.3586,30.7158 C6.8766,30.7158 0.0006,23.8398 0.0006,15.3578 C0.0006,6.8758 6.8766,-0.0002 15.3586,-0.0002 C23.8396,-0.0002 30.7156,6.8758 30.7156,15.3578"
      id="Fill-1" fill="#56A4D6"/>
    <path
      d="M19.5647,21.0794 C18.3387,21.0794 17.1597,20.6864 16.1817,19.9684 C16.1827,19.9684 16.1827,19.9684 16.1827,19.9674 L16.1807,19.9694 C16.1807,19.9694 15.3227,19.2604 15.3127,19.2504 C14.2027,18.2144 11.2517,15.4594 12.2587,14.1724 C12.5367,13.8174 13.0207,13.6134 13.5107,13.6134 C13.6937,13.6134 13.8797,13.6424 14.0547,13.7024 C14.4027,13.8224 14.8167,14.1044 14.8337,14.7654 L14.8337,14.8084 L14.8347,15.3344 L15.8877,15.3344 L15.8877,14.8084 C15.8877,14.7934 15.8877,14.7794 15.8867,14.7654 C15.9037,14.1044 16.3177,13.8224 16.6667,13.7024 C17.3077,13.4814 18.0797,13.6834 18.4627,14.1724 C19.2997,15.2434 17.4017,17.3264 16.0997,18.5944 L16.8877,19.2974 C18.5077,17.7214 20.6607,15.2744 19.2917,13.5244 C18.6347,12.6844 17.3867,12.3404 16.3237,12.7074 C15.9317,12.8424 15.6067,13.0584 15.3607,13.3384 C15.1147,13.0584 14.7897,12.8424 14.3977,12.7074 C13.3337,12.3404 12.0857,12.6834 11.4287,13.5244 C9.8477,15.5474 12.9707,18.5034 14.5367,19.9664 C13.5587,20.6864 12.3777,21.0794 11.1507,21.0794 C7.9967,21.0794 5.4297,18.5124 5.4297,15.3574 C5.4297,12.2034 7.9967,9.6364 11.1507,9.6364 C12.5797,9.6364 13.9477,10.1664 15.0027,11.1274 L15.3577,11.4514 L15.7127,11.1274 C16.7677,10.1664 18.1357,9.6364 19.5647,9.6364 C22.7197,9.6364 25.2857,12.2034 25.2857,15.3574 C25.2857,18.5124 22.7197,21.0794 19.5647,21.0794 M19.5647,8.5834 C18.0287,8.5834 16.5517,9.1004 15.3577,10.0484 C14.1637,9.1004 12.6877,8.5834 11.1507,8.5834 C7.4157,8.5834 4.3767,11.6224 4.3767,15.3574 C4.3767,19.0934 7.4157,22.1324 11.1507,22.1324 C12.6877,22.1324 14.1637,21.6154 15.3577,20.6674 C16.5517,21.6154 18.0287,22.1324 19.5647,22.1324 C23.2997,22.1324 26.3387,19.0934 26.3387,15.3574 C26.3387,11.6224 23.2997,8.5834 19.5647,8.5834"
      id="Fill-3" fill="#FFFFFF"/>
  </g>
</svg>
