<?xml version="1.0" encoding="UTF-8"?>
<svg width="32px" height="32px" viewBox="0 0 32 32" version="1.1" xmlns="http://www.w3.org/2000/svg" xmlns:xlink="http://www.w3.org/1999/xlink">
    <!-- Generator: Sketch 46.2 (44496) - http://www.bohemiancoding.com/sketch -->
    <title>Blog</title>
    <desc>Created with Sketch.</desc>
    <defs></defs>
    <g id="General" stroke="none" stroke-width="1" fill="none" fill-rule="evenodd">
        <g id="Style-overview" transform="translate(-280.000000, -1989.000000)">
            <g id="Blog" transform="translate(280.000000, 1989.000000)">
                <g id="Page-1">
                    <path d="M31.998,15.999 C31.998,24.835 24.835,31.998 15.999,31.998 C7.163,31.998 0,24.835 0,15.999 C0,7.163 7.163,0 15.999,0 C24.835,0 31.998,7.163 31.998,15.999" id="Fill-1" fill="#000000"></path>
                    <path d="M5.6738,16.5053 L5.6738,18.9483 L6.8578,18.9483 C7.2108,18.9483 7.4748,18.8503 7.6488,18.6543 C7.8238,18.4583 7.9108,18.1653 7.9108,17.7763 C7.9108,17.3693 7.8368,17.0543 7.6878,16.8353 C7.5388,16.6153 7.2988,16.5053 6.9688,16.5053 L5.6738,16.5053 Z M5.6738,15.3343 L6.5978,15.3343 C6.9398,15.3263 7.2018,15.2263 7.3838,15.0353 C7.5668,14.8453 7.6578,14.5703 7.6578,14.2123 C7.6578,13.8103 7.5638,13.5163 7.3758,13.3293 C7.1868,13.1423 6.9028,13.0493 6.5218,13.0493 L5.6738,13.0493 L5.6738,15.3343 Z M3.9958,20.2853 L3.9958,11.7133 L6.5218,11.7133 C7.4048,11.7133 8.0948,11.9093 8.5908,12.3013 C9.0878,12.6943 9.3358,13.2793 9.3358,14.0563 C9.3358,14.4643 9.2458,14.8263 9.0648,15.1423 C8.8838,15.4583 8.6138,15.6943 8.2528,15.8523 C8.7038,15.9583 9.0378,16.1873 9.2538,16.5403 C9.4698,16.8943 9.5768,17.3073 9.5768,17.7823 C9.5768,18.6033 9.3428,19.2253 8.8738,19.6493 C8.4048,20.0733 7.7328,20.2853 6.8578,20.2853 L3.9958,20.2853 Z" id="Fill-3" fill="#FFFFFF"></path>
                    <polygon id="Fill-5" fill="#FFFFFF" points="11.8799 18.9487 15.0119 18.9487 15.0119 20.2847 10.2019 20.2847 10.2019 11.7127 11.8799 11.7127"></polygon>
                    <path d="M19.8125,14.7856 C19.8125,14.1716 19.6995,13.7086 19.4715,13.3956 C19.2435,13.0826 18.9125,12.9256 18.4765,12.9256 C18.0365,12.9256 17.7075,13.0806 17.4875,13.3916 C17.2675,13.7036 17.1575,14.1676 17.1575,14.7856 L17.1575,17.2066 C17.1575,17.8286 17.2695,18.2946 17.4935,18.6056 C17.7165,18.9166 18.0465,19.0726 18.4815,19.0726 C18.9135,19.0726 19.2435,18.9166 19.4715,18.6056 C19.6995,18.2946 19.8125,17.8286 19.8125,17.2066 L19.8125,14.7856 Z M21.4795,17.2056 C21.4795,18.2106 21.2065,18.9956 20.6605,19.5606 C20.1145,20.1256 19.3885,20.4086 18.4815,20.4086 C17.5755,20.4086 16.8515,20.1256 16.3095,19.5606 C15.7685,18.9956 15.4975,18.2106 15.4975,17.2056 L15.4975,14.8036 C15.4975,13.8036 15.7685,13.0166 16.3095,12.4456 C16.8515,11.8746 17.5735,11.5896 18.4765,11.5896 C19.3785,11.5896 20.1045,11.8746 20.6545,12.4456 C21.2045,13.0166 21.4795,13.8036 21.4795,14.8036 L21.4795,17.2056 Z" id="Fill-7" fill="#FFFFFF"></path>
                    <path d="M28.002,19.0131 C27.771,19.3821 27.423,19.7071 26.96,19.9881 C26.497,20.2681 25.91,20.4091 25.2,20.4091 C24.281,20.4091 23.544,20.1391 22.989,19.6021 C22.434,19.0641 22.156,18.2991 22.156,17.3061 L22.156,14.6921 C22.156,13.7071 22.423,12.9431 22.96,12.4021 C23.495,11.8601 24.205,11.5891 25.088,11.5891 C26.038,11.5891 26.75,11.8221 27.225,12.2861 C27.7,12.7511 27.947,13.4161 27.967,14.2831 L27.955,14.3181 L26.383,14.3181 C26.371,13.8341 26.264,13.4811 26.062,13.2591 C25.86,13.0361 25.551,12.9261 25.135,12.9261 C24.727,12.9261 24.407,13.0701 24.175,13.3591 C23.944,13.6481 23.828,14.0861 23.828,14.6761 L23.828,17.3041 C23.828,17.9061 23.945,18.3501 24.178,18.6391 C24.412,18.9281 24.752,19.0721 25.2,19.0721 C25.533,19.0721 25.779,19.0271 25.939,18.9371 C26.097,18.8461 26.228,18.7131 26.33,18.5361 L26.33,17.0001 L25.2,17.0001 L25.2,15.8221 L28.002,15.8221 L28.002,19.0131 Z" id="Fill-9" fill="#FFFFFF"></path>
                </g>
            </g>
        </g>
    </g>
</svg>