<svg width="32px" height="32px" viewBox="0 0 32 32" version="1.1" xmlns="http://www.w3.org/2000/svg">
  <g id="blog" stroke="none" stroke-width="1" fill="none" fill-rule="evenodd">
    <path d="M16,31.9979979 C7.16344772,31.9979979 0,24.8349984 0,15.998999 C0,7.16299953 7.16344772,0 16,0 C24.8365523,0 32,7.16299953 32,15.998999 C32,24.8349984 24.8365523,31.9979979 16,31.9979979 Z M5.679,13.461519 L6.527,13.461519 C6.907,13.461519 7.192,13.5556169 7.381,13.7418104 C7.569,13.9290049 7.663,14.2233108 7.663,14.6267301 C7.663,14.9841016 7.572,15.2593877 7.389,15.4495854 C7.207,15.6407841 6.944,15.7408881 6.602,15.7488965 L5.679,15.7488965 L5.679,13.461519 Z M5.679,16.9211148 L6.974,16.9211148 C7.304,16.9211148 7.544,17.0322303 7.693,17.2514582 C7.842,17.470686 7.916,17.7860138 7.916,18.1944383 C7.916,18.582842 7.829,18.8761468 7.654,19.0723507 C7.48,19.2685547 7.216,19.3676577 6.862,19.3676577 L5.679,19.3676577 L5.679,16.9211148 Z M4,12.124129 L4,20.7050477 L6.862,20.7050477 C7.738,20.7050477 8.41,20.4938282 8.879,20.069387 C9.347,19.6449459 9.581,19.0212977 9.581,18.1994435 C9.581,17.7239493 9.475,17.3115206 9.259,16.9561512 C9.043,16.602784 8.708,16.3745467 8.258,16.2674354 C8.618,16.109271 8.888,15.8730255 9.07,15.5566967 C9.251,15.241369 9.341,14.8789923 9.341,14.4695668 C9.341,13.6917584 9.093,13.1061497 8.596,12.7127408 C8.1,12.321334 7.41,12.124129 6.527,12.124129 L4,12.124129 Z M15.502,15.218345 L15.502,17.6218431 C15.502,18.6278888 15.773,19.4137055 16.314,19.9802944 C16.856,20.5458823 17.581,20.8281757 18.487,20.8281757 C19.393,20.8281757 20.12,20.5458823 20.666,19.9802944 C21.211,19.4137055 21.485,18.6278888 21.485,17.6218431 L21.485,15.218345 C21.485,14.2163035 21.209,13.4294858 20.659,12.8578917 C20.11,12.2852965 19.383,12 18.482,12 C17.579,12 16.856,12.2852965 16.314,12.8578917 C15.773,13.4294858 15.502,14.2163035 15.502,15.218345 Z M17.162,17.6238452 L17.162,15.2003263 C17.162,14.5816833 17.273,14.1161995 17.492,13.8048759 C17.713,13.4935523 18.041,13.3383911 18.482,13.3383911 C18.917,13.3383911 19.248,13.4945534 19.477,13.8088801 C19.705,14.1222057 19.817,14.5846864 19.817,15.2003263 L19.817,17.6238452 C19.817,18.2464924 19.705,18.7119762 19.477,19.0243008 C19.248,19.3356244 18.919,19.4917867 18.487,19.4917867 C18.051,19.4917867 17.722,19.3356244 17.499,19.0243008 C17.275,18.7119762 17.162,18.2464924 17.162,17.6238452 Z M10.2069,12.1236285 L10.2069,20.7055482 L15.0169,20.7055482 L15.0169,19.3671572 L11.8849,19.3671572 L11.8849,12.1236285 L10.2069,12.1236285 Z M22.161,15.1062285 L22.161,17.7229482 C22.161,18.7169814 22.439,19.4827773 22.994,20.0213371 C23.549,20.5588958 24.286,20.8291767 25.205,20.8291767 C25.915,20.8291767 26.502,20.68803 26.965,20.4077387 C27.428,20.1264463 27.776,19.8011082 28.007,19.4317243 L28.007,16.2374042 L25.205,16.2374042 L25.205,17.4166298 L26.335,17.4166298 L26.335,18.954228 C26.233,19.1314121 26.102,19.2645505 25.944,19.3556452 C25.784,19.4457388 25.538,19.4907856 25.205,19.4907856 C24.757,19.4907856 24.417,19.3466358 24.183,19.0573351 C23.95,18.7680344 23.833,18.3235725 23.833,17.7209461 L23.833,15.0902119 C23.833,14.499598 23.949,14.0611423 24.18,13.7718416 C24.412,13.4825409 24.732,13.3383911 25.14,13.3383911 C25.556,13.3383911 25.865,13.4485055 26.067,13.6717375 C26.269,13.8939685 26.376,14.2473358 26.388,14.7318394 L27.96,14.7318394 L27.972,14.696803 C27.952,13.8289009 27.705,13.163209 27.23,12.6977252 C26.755,12.2332424 26.043,12 25.093,12 C24.21,12 23.5,12.271282 22.965,12.8138459 C22.428,13.3554088 22.161,14.1202037 22.161,15.1062285 Z" class="circle-path" id="Combined-Shape" fill="#000000"/>
  </g>
</svg>
