<svg width="37px" height="37px" viewBox="0 0 37 37" version="1.1" xmlns="http://www.w3.org/2000/svg">
  <g>
    <path
      d="M18.5017922,0 C13.4775005,0 12.8469589,0.02196875 10.8736255,0.111770833 C8.90414635,0.201958333 7.55981302,0.513760417 6.38352135,0.97125 C5.16676094,1.44377083 4.1346151,2.07585417 3.10632344,3.10453125 C2.07726094,4.13282292 1.4451776,5.16496875 0.971115104,6.38134375 C0.512469271,7.55802083 0.200281771,8.90273958 0.111635937,10.8714479 C0.0233755208,12.8447812 0.000250520833,13.4757083 0.000250520833,18.5 C0.000250520833,23.5242917 0.0226046875,24.1529063 0.112021354,26.1262396 C0.202594271,28.0957187 0.514396354,29.4400521 0.971500521,30.6163438 C1.44440677,31.8331042 2.0764901,32.86525 3.10516719,33.8935417 C4.13307344,34.9226042 5.16521927,35.5562292 6.38120885,36.02875 C7.55827135,36.4862396 8.9029901,36.7980417 10.8720839,36.8882292 C12.8454172,36.9780313 13.4755734,37 18.4994797,37 C23.5241568,37 24.1527714,36.9780313 26.1261047,36.8882292 C28.0955839,36.7980417 29.4414589,36.4862396 30.6185214,36.02875 C31.8348964,35.5562292 32.8655005,34.9226042 33.8934068,33.8935417 C34.9224693,32.86525 35.5545526,31.8331042 36.0286151,30.6167292 C36.4834068,29.4400521 36.7955943,28.0953333 36.8880943,26.126625 C36.9767401,24.1532917 36.9998651,23.5242917 36.9998651,18.5 C36.9998651,13.4757083 36.9767401,12.8451667 36.8880943,10.8718333 C36.7955943,8.90235417 36.4834068,7.55802083 36.0286151,6.38172917 C35.5545526,5.16496875 34.9224693,4.13282292 33.8934068,3.10453125 C32.8643443,2.07546875 31.8352818,1.44338542 30.6173651,0.97125 C29.4379901,0.513760417 28.0928859,0.201958333 26.1234068,0.111770833 C24.1500734,0.02196875 23.5218443,5.47710025e-15 18.4960109,5.47710025e-15 L18.5017922,0 Z M16.842188,3.33385417 C17.3347505,3.33308333 17.8843547,3.33385417 18.5017922,3.33385417 C23.4412922,3.33385417 24.0267401,3.35158333 25.9773339,3.44022917 C27.7810839,3.52270833 28.7600422,3.82410417 29.4121672,4.07732292 C30.2755005,4.41263542 30.8910109,4.81346875 31.5381255,5.46096875 C32.1856255,6.10846875 32.5864589,6.72513542 32.9225422,7.58846875 C33.1757609,8.23982292 33.4775422,9.21878125 33.5596359,11.0225312 C33.6482818,12.9727396 33.6675526,13.5585729 33.6675526,18.4957604 C33.6675526,23.4329479 33.6482818,24.0187813 33.5596359,25.9689896 C33.4771568,27.7727396 33.1757609,28.7516979 32.9225422,29.4030521 C32.5872297,30.2663854 32.1856255,30.881125 31.5381255,31.5282396 C30.8906255,32.1757396 30.2758859,32.5765729 29.4121672,32.9118854 C28.760813,33.1662604 27.7810839,33.4668854 25.9773339,33.5493646 C24.0271255,33.6380104 23.4412922,33.6572813 18.5017922,33.6572813 C13.5619068,33.6572813 12.9764589,33.6380104 11.0262505,33.5493646 C9.22250052,33.4661146 8.24354219,33.1647188 7.59103177,32.9115 C6.72769844,32.5761875 6.11103177,32.1753542 5.46353177,31.5278542 C4.81603177,30.8803542 4.41519844,30.2652292 4.0791151,29.4015104 C3.82589635,28.7501563 3.5241151,27.7711979 3.44202135,25.9674479 C3.35337552,24.0172396 3.33564635,23.4314063 3.33564635,18.4911354 C3.33564635,13.5508646 3.35337552,12.9681146 3.44202135,11.0179062 C3.52450052,9.21415625 3.82589635,8.23519792 4.0791151,7.58307292 C4.4144276,6.71973958 4.81603177,6.10307292 5.46353177,5.45557292 C6.11103177,4.80807292 6.72769844,4.40723958 7.59103177,4.07115625 C8.24315677,3.81678125 9.22250052,3.51615625 11.0262505,3.43329167 C12.7328755,3.35620833 13.3942505,3.33308333 16.842188,3.32922917 L16.842188,3.33385417 Z M28.376938,6.405625 C27.151313,6.405625 26.156938,7.39884375 26.156938,8.62485417 C26.156938,9.85047917 27.151313,10.8448542 28.376938,10.8448542 C29.602563,10.8448542 30.596938,9.85047917 30.596938,8.62485417 C30.596938,7.39922917 29.602563,6.40485417 28.376938,6.40485417 L28.376938,6.405625 Z M18.5017922,8.99947917 C13.2551151,8.99947917 9.00127135,13.2533229 9.00127135,18.5 C9.00127135,23.7466771 13.2551151,27.9985938 18.5017922,27.9985938 C23.7484693,27.9985938 28.0007714,23.7466771 28.0007714,18.5 C28.0007714,13.2533229 23.7480839,8.99947917 18.5014068,8.99947917 L18.5017922,8.99947917 Z M18.5017922,12.3333333 C21.9073339,12.3333333 24.6684589,15.0940729 24.6684589,18.5 C24.6684589,21.9055417 21.9073339,24.6666667 18.5017922,24.6666667 C15.0958651,24.6666667 12.3351255,21.9055417 12.3351255,18.5 C12.3351255,15.0940729 15.0958651,12.3333333 18.5017922,12.3333333 L18.5017922,12.3333333 Z"
id="Shape"/>
  </g>
</svg>
