<?xml version="1.0" encoding="UTF-8"?>
<svg width="34px" height="33px" viewBox="0 0 34 33" version="1.1" xmlns="http://www.w3.org/2000/svg" xmlns:xlink="http://www.w3.org/1999/xlink">
    <!-- Generator: Sketch 47.1 (45422) - http://www.bohemiancoding.com/sketch -->
    <title>Instagram_darkblue</title>
    <desc>Created with Sketch.</desc>
    <defs>
        <path d="M0,16.5 C0,7.38730118 7.38730118,0 16.5,0 C25.6126988,0 33,7.38730118 33,16.5 C33,25.6126988 25.6126988,33 16.5,33 C7.38730118,33 0,25.6126988 0,16.5 Z" id="path-1"></path>
    </defs>
    <g id="Symbols" stroke="none" stroke-width="1" fill="none" fill-rule="evenodd">
        <g id="Instagram_darkblue">
            <g id="Tumblr-Copy-3" transform="translate(0.666667, 0.000000)">
                <g id="Instagram">
                    <mask id="mask-2" fill="white">
                        <use xlink:href="#path-1"></use>
                    </mask>
                    <use id="back" fill="#313C4B" xlink:href="#path-1"></use>
                    <path d="M16.500825,7.7 C14.1108668,7.7 13.8109303,7.71045011 12.8722539,7.75316722 C11.9354108,7.79606767 11.2959375,7.94438588 10.7363983,8.16200481 C10.1576089,8.38677382 9.66663715,8.68744362 9.17749872,9.17676538 C8.68799362,9.66590381 8.38732383,10.1568756 8.16182148,10.7354816 C7.94365254,11.2952041 7.79515099,11.9348608 7.75298389,12.8713372 C7.71100011,13.8100136 7.7,14.1101334 7.7,16.5000917 C7.7,18.8900499 7.71063344,19.1890697 7.75316722,20.1277461 C7.796251,21.0645892 7.94456921,21.7040625 8.16200481,22.2636017 C8.38695716,22.8423911 8.68762695,23.3333628 9.17694872,23.8225013 C9.66590381,24.3120064 10.1568756,24.6134095 10.7352983,24.8381785 C11.2952041,25.0557975 11.9348608,25.2041157 12.8715205,25.2470161 C13.810197,25.2897332 14.1099501,25.3001833 16.499725,25.3001833 C18.8898666,25.3001833 19.1888863,25.2897332 20.1275628,25.2470161 C21.0644059,25.2041157 21.7046125,25.0557975 22.2645184,24.8381785 C22.8431244,24.6134095 23.3333628,24.3120064 23.8223179,23.8225013 C24.311823,23.3333628 24.6124928,22.8423911 24.8379952,22.263785 C25.0543308,21.7040625 25.2028323,21.0644059 25.2468328,20.1279295 C25.2889999,19.189253 25.3,18.8900499 25.3,16.5000917 C25.3,14.1101334 25.2889999,13.810197 25.2468328,12.8715205 C25.2028323,11.9346774 25.0543308,11.2952041 24.8379952,10.735665 C24.6124928,10.1568756 24.311823,9.66590381 23.8223179,9.17676538 C23.3328128,8.68726028 22.8433077,8.38659049 22.2639684,8.16200481 C21.7029625,7.94438588 21.0631225,7.79606767 20.1262794,7.75316722 C19.187603,7.71045011 18.8887665,7.7 16.498075,7.7 L16.500825,7.7 Z M15.7113835,9.28584985 C15.9456859,9.28548318 16.2071219,9.28584985 16.500825,9.28584985 C18.8504495,9.28584985 19.1289357,9.29428327 20.0567954,9.33645038 C20.9148043,9.37568412 21.3804758,9.51905228 21.6906791,9.63950354 C22.10135,9.7990052 22.3941364,9.98967385 22.7019563,10.2976771 C23.0099595,10.6056803 23.2006281,10.8990167 23.3604965,11.3096876 C23.4809477,11.6195242 23.6244992,12.0851957 23.6635496,12.9432046 C23.7057167,13.8708809 23.7148835,14.1495505 23.7148835,16.498075 C23.7148835,18.8465994 23.7057167,19.125269 23.6635496,20.0529453 C23.6243159,20.9109543 23.4809477,21.3766258 23.3604965,21.6864624 C23.2009948,22.0971333 23.0099595,22.389553 22.7019563,22.6973729 C22.3939531,23.0053761 22.1015333,23.1960448 21.6906791,23.3555464 C21.3808425,23.4765477 20.9148043,23.6195492 20.0567954,23.6587829 C19.1291191,23.70095 18.8504495,23.7101168 16.500825,23.7101168 C14.1510172,23.7101168 13.872531,23.70095 12.9448546,23.6587829 C12.0868457,23.6191825 11.6211742,23.4758143 11.3107876,23.3553631 C10.9001167,23.1958614 10.6067803,23.0051928 10.2987771,22.6971896 C9.99077386,22.3891863 9.80010521,22.0965833 9.64023688,21.685729 C9.51978562,21.3758925 9.37623413,20.9102209 9.33718372,20.052212 C9.29501661,19.1245357 9.28658319,18.8458661 9.28658319,16.495875 C9.28658319,14.1458838 9.29501661,13.8686809 9.33718372,12.9410046 C9.37641746,12.0829957 9.51978562,11.6173241 9.64023688,11.3071209 C9.79973854,10.89645 9.99077386,10.6031136 10.2987771,10.2951104 C10.6067803,9.98710716 10.9001167,9.7964385 11.3107876,9.63657017 C11.6209908,9.51556891 12.0868457,9.37256742 12.9448546,9.33315035 C13.7566631,9.2964833 14.0712664,9.28548318 15.7113835,9.28364983 L15.7113835,9.28584985 Z M21.1982406,10.7470317 C20.6152345,10.7470317 20.1422296,11.2194867 20.1422296,11.8026761 C20.1422296,12.3856821 20.6152345,12.8586871 21.1982406,12.8586871 C21.7812467,12.8586871 22.2542516,12.3856821 22.2542516,11.8026761 C22.2542516,11.21967 21.7812467,10.7466651 21.1982406,10.7466651 L21.1982406,10.7470317 Z M16.500825,11.9808779 C14.0050823,11.9808779 11.9816113,14.004349 11.9816113,16.5000917 C11.9816113,18.9958343 14.0050823,21.0183887 16.500825,21.0183887 C18.9965677,21.0183887 21.0193054,18.9958343 21.0193054,16.5000917 C21.0193054,14.004349 18.9963843,11.9808779 16.5006417,11.9808779 L16.500825,11.9808779 Z M16.500825,13.5667278 C18.1207752,13.5667278 19.4341889,14.8799581 19.4341889,16.5000917 C19.4341889,18.1200419 18.1207752,19.4334556 16.500825,19.4334556 C14.8806915,19.4334556 13.5674611,18.1200419 13.5674611,16.5000917 C13.5674611,14.8799581 14.8806915,13.5667278 16.500825,13.5667278 L16.500825,13.5667278 Z" id="Shape" fill="#FFFFFF" mask="url(#mask-2)"></path>
                </g>
            </g>
        </g>
    </g>
</svg>