<?xml version="1.0" encoding="UTF-8"?>
<svg width="32px" height="32px" viewBox="0 0 32 32" version="1.1" xmlns="http://www.w3.org/2000/svg" xmlns:xlink="http://www.w3.org/1999/xlink">
    <!-- Generator: Sketch 47.1 (45422) - http://www.bohemiancoding.com/sketch -->
    <title>Pinterest Copy</title>
    <desc>Created with Sketch.</desc>
    <defs></defs>
    <g id="Brand-sketches" stroke="none" stroke-width="1" fill="none" fill-rule="evenodd">
        <g id="Brand-Profile-overlay-Copy" transform="translate(-517.000000, -166.000000)">
            <g id="Pinterest-Copy" transform="translate(517.000000, 166.000000)">
                <path d="M16,32 C7.16195373,32 0,24.8350024 0,15.9991431 C0,7.16328389 7.16195373,0 16,0 C24.8363325,0 32,7.16328389 32,15.9991431 C32,24.8350024 24.8363325,32 16,32 Z" id="Fill-1892" fill="#FFFFFF"></path>
                <path d="M16,0 C7.16321948,0 0,7.16132845 0,16 C0,22.7774495 4.21699563,28.5677816 10.1680652,30.8994209 C10.0281291,29.6343222 9.90332112,27.692235 10.2247961,26.3080014 C10.5141236,25.059922 12.1006973,18.3562227 12.1006973,18.3562227 C12.1006973,18.3562227 11.6222669,17.3974707 11.6222669,15.9810897 C11.6222669,13.7553481 12.9100579,12.0950242 14.5174329,12.0950242 C15.8808651,12.0950242 16.5408344,13.1199622 16.5408344,14.3491313 C16.5408344,15.7220187 15.6671788,17.7737856 15.2152228,19.6761612 C14.8389079,21.270299 16.0151282,22.5675452 17.5846827,22.5675452 C20.4287909,22.5675452 22.6148209,19.5683725 22.6148209,15.2398062 C22.6148209,11.4085805 19.8633731,8.73088287 15.9319229,8.73088287 C11.3802151,8.73088287 8.70819052,12.146082 8.70819052,15.6747429 C8.70819052,17.0495213 9.23578773,18.5245243 9.89764803,19.3263208 C10.0281291,19.4851672 10.0470394,19.6232124 10.0092188,19.7858409 C9.88819289,20.2907458 9.61777568,21.3780877 9.56482685,21.5993381 C9.49485876,21.8924477 9.33223023,21.9548517 9.02777449,21.8149155 C7.03084742,20.884529 5.78276799,17.9609975 5.78276799,15.616121 C5.78276799,10.5689635 9.44947406,5.93215932 16.3536225,5.93215932 C21.9037939,5.93215932 26.217232,9.88819289 26.217232,15.1736201 C26.217232,20.687862 22.7396289,25.126108 17.9156128,25.126108 C16.2931096,25.126108 14.7689398,24.2827089 14.2470157,23.2880274 C14.2470157,23.2880274 13.4452192,26.3420399 13.2504432,27.0908876 C12.8892566,28.4807942 11.9134854,30.2224323 11.2629713,31.2851909 C12.7587756,31.7503841 14.3491313,32 16,32 C24.8367805,32 32,24.8367805 32,16 C32,7.16132845 24.8367805,0 16,0" id="Fill-1894" fill="#BDC0C9"></path>
            </g>
        </g>
    </g>
</svg>