<svg width="32px" height="32px" viewBox="0 0 32 32" version="1.1" xmlns="http://www.w3.org/2000/svg"><g id="podcast" stroke="none" stroke-width="1" fill="none" fill-rule="evenodd"><path d="M0,16.0005246 C0,24.8364316 7.16352142,32 15.9994993,32 C24.8364786,32 32,24.8364316 32,16.0005246 C32,7.16356841 24.8364786,0 15.9994993,0 C7.16352142,0 0,7.16356841 0,16.0005246 Z" id="Clip-2" fill="#7E40B5"/><path d="M13.016,10.921 C13.014,12.459 13.015,13.995 13.015,15.531 C13.015,15.68 13.025,15.826 13.047,15.974 C13.268,17.43 14.634,18.478 16.195,18.384 C17.695,18.294 18.924,17.04 18.93,15.589 C18.933,14.805 18.93,14.022 18.93,13.239 C18.93,12.48 18.93,11.721 18.931,10.961 C18.931,10.795 18.922,10.63 18.896,10.465 C18.695,9.169 17.512,8.068 15.988,8.068 C15.862,8.068 15.733,8.077 15.603,8.092 C14.094,8.273 13.017,9.473 13.016,10.921 Z" id="Mask" fill="#FFFFFF"/><path d="M9.381,14.418 C9.39,14.888 9.385,15.359 9.386,15.829 C9.387,16.6 9.558,17.342 9.848,18.056 C10.259,19.064 10.917,19.909 11.786,20.6 C12.618,21.261 13.572,21.687 14.633,21.889 C14.794,21.919 14.848,21.996 14.846,22.148 C14.84,22.718 14.842,23.288 14.845,23.858 C14.846,24.095 14.87,24.116 15.122,24.117 C15.691,24.118 16.26,24.118 16.829,24.117 C17.078,24.116 17.101,24.095 17.102,23.854 C17.104,23.297 17.109,22.741 17.1,22.184 C17.097,22.002 17.151,21.915 17.353,21.873 C17.718,21.797 18.079,21.702 18.425,21.561 C20.106,20.881 21.327,19.753 22.047,18.148 C22.454,17.239 22.614,16.283 22.562,15.407 C22.562,14.99 22.557,14.685 22.564,14.381 C22.568,14.217 22.496,14.158 22.329,14.16 C21.738,14.164 21.149,14.164 20.558,14.16 C20.389,14.159 20.326,14.223 20.329,14.386 C20.337,14.802 20.337,15.22 20.331,15.637 C20.314,16.677 20.004,17.615 19.295,18.423 C18.645,19.164 17.811,19.621 16.839,19.821 C16.084,19.975 15.329,19.917 14.583,19.685 C12.969,19.181 11.746,17.689 11.641,16.073 C11.605,15.517 11.62,14.962 11.618,14.405 C11.618,14.231 11.568,14.158 11.381,14.158 C11.378,14.158 11.375,14.158 11.371,14.158 C10.795,14.167 10.219,14.167 9.643,14.158 C9.64,14.158 9.636,14.158 9.633,14.158 C9.437,14.158 9.378,14.237 9.381,14.418 Z" id="Clip-8" fill="#FFFFFF"/></g></svg>
