<?xml version="1.0" encoding="UTF-8"?>
<svg width="32px" height="32px" viewBox="0 0 32 32" version="1.1" xmlns="http://www.w3.org/2000/svg" xmlns:xlink="http://www.w3.org/1999/xlink">
    <!-- Generator: Sketch 46.2 (44496) - http://www.bohemiancoding.com/sketch -->
    <title>Snapchat</title>
    <desc>Created with Sketch.</desc>
    <defs></defs>
    <g id="General" stroke="none" stroke-width="1" fill="none" fill-rule="evenodd">
        <g id="Style-overview" transform="translate(-325.000000, -1989.000000)">
            <g id="Snapchat" transform="translate(325.000000, 1989.000000)">
                <g>
                    <path d="M0,16 C0,7.16344357 7.05619216,0 15.7604473,0 C24.4647024,0 31.5208945,7.16344357 31.5208945,16 C31.5208945,24.8365564 24.4647024,32 15.7604473,32 C7.05619216,32 0,24.8365564 0,16 Z" id="back" fill="#FFE400"></path>
                    <path d="M15.8991108,8 L15.8983712,8 C15.8838844,8 15.8702676,8 15.8573034,8.0001764 C15.7539378,8.00123482 15.584011,8.00291064 15.5687411,8.00308704 C15.1960854,8.00308704 14.4504696,8.05644875 13.6495601,8.41481008 C13.1916365,8.61956908 12.7797402,8.89643254 12.4253563,9.23772695 C12.002845,9.64437842 11.658641,10.1457579 11.4024892,10.7281502 C11.0273538,11.5808791 11.1164065,13.017191 11.1879272,14.1714355 L11.1881882,14.1732436 C11.1958449,14.2968576 11.2038932,14.42594 11.2112454,14.5517148 C11.1562128,14.5773373 11.066986,14.6043709 10.9354732,14.6043709 C10.7238695,14.6043709 10.4722421,14.5357945 10.1877692,14.4006703 C10.1040674,14.3611562 10.0085325,14.3411786 9.90312222,14.3411786 C9.73376097,14.3411786 9.55522037,14.3917179 9.40034597,14.4840204 C9.20549135,14.600005 9.07959064,14.7639268 9.04539646,14.9456653 C9.02286136,15.0658835 9.02394896,15.3034975 9.28432068,15.544463 C9.42753599,15.6771176 9.63792156,15.7994526 9.90947381,15.9082487 C9.98073344,15.9366936 10.0653053,15.9638596 10.1548801,15.9926573 C10.4657165,16.0928097 10.9361693,16.2441188 11.0588507,16.5368143 C11.121018,16.6852128 11.094263,16.8804902 10.9795428,17.1165165 C10.976541,17.1229552 10.9735393,17.1292616 10.9707985,17.1358767 C10.9421293,17.2037474 10.6746665,17.8178922 10.126037,18.4655974 C9.81428696,18.8339255 9.47090953,19.1417475 9.10599759,19.3807727 C8.66060317,19.6725863 8.17866536,19.8633654 7.6737139,19.9476857 C7.47542246,19.9806729 7.33381679,20.1597654 7.34486682,20.3632896 C7.34826013,20.4219433 7.3618334,20.4804207 7.38536909,20.5370018 C7.3855431,20.5373546 7.38576062,20.5377074 7.38593464,20.5380161 C7.46611259,20.7281337 7.65200538,20.88963 7.95422799,21.0320749 C8.32353383,21.2059635 8.87586119,21.3522451 9.59572263,21.4666861 C9.63209202,21.5368061 9.66985353,21.713032 9.69599946,21.8336912 C9.7233635,21.9619357 9.75190216,22.0937964 9.79257844,22.2338599 C9.83647402,22.38561 9.95032411,22.5669516 10.2428018,22.5669516 C10.3536501,22.5669516 10.481117,22.5416378 10.6287262,22.5126197 C10.8448978,22.4696216 11.1405078,22.4109678 11.5094656,22.4109678 C11.7140216,22.4109678 11.9260168,22.4292255 12.1394042,22.4651674 C12.5507349,22.5345817 12.9053364,22.7885129 13.3156231,23.0825756 C13.9161529,23.5129091 14.5959036,24 15.6344757,24 C15.6627968,24 15.691205,23.9990739 15.7192651,23.9970894 C15.7535898,23.9987211 15.7961367,24 15.8410329,24 C16.8799095,24 17.5594862,23.5127327 18.1593635,23.082752 L18.1603206,23.08187 C18.5706943,22.7881601 18.9249042,22.5345817 19.3361044,22.4651674 C19.5494048,22.4292696 19.7613565,22.4109678 19.9659995,22.4109678 C20.3184693,22.4109678 20.5975477,22.4565237 20.8467389,22.5057841 C21.009357,22.5382421 21.1357363,22.5538537 21.2327068,22.5538537 L21.2421907,22.5540301 L21.2520226,22.5540301 C21.465932,22.5540301 21.6231121,22.4350026 21.6831042,22.2267156 C21.7229539,22.0896069 21.7514055,21.9608332 21.7794656,21.8304277 C21.8039149,21.7173539 21.8429816,21.5361005 21.8793509,21.4652308 C22.5996909,21.3505693 23.1518008,21.2045964 23.5211501,21.0307519 C23.8226767,20.8889685 24.0083519,20.7276486 24.0890084,20.5383248 C24.1131967,20.4815673 24.1273355,20.4227372 24.1305113,20.3628486 C24.1418658,20.1596772 24.0000426,19.9802319 23.8016207,19.9472447 C21.5574645,19.5723015 20.546474,17.2347943 20.5046666,17.1354797 C20.5019693,17.1289529 20.4989241,17.1224701 20.4957483,17.1161637 C20.3810281,16.8800492 20.3545341,16.6849923 20.4167449,16.5363292 C20.5391653,16.2438983 21.0093135,16.0925892 21.3203675,15.9924809 C21.4104208,15.9637273 21.4952972,15.9363849 21.5659913,15.9080723 C21.8722163,15.7854727 22.0910851,15.6524654 22.2354751,15.5014209 C22.4079251,15.3213582 22.4415102,15.1488367 22.439422,15.0359392 C22.434158,14.7627802 22.2281664,14.5200506 21.9004939,14.4011995 C21.7898196,14.3548057 21.6636144,14.3303299 21.5351034,14.3303299 C21.4476168,14.3303299 21.3180617,14.3425017 21.1954238,14.400538 C20.9328769,14.5250781 20.697694,14.5931694 20.4957918,14.6028715 C20.3884238,14.5973589 20.3131183,14.5737651 20.2643503,14.5512297 C20.2704843,14.4446827 20.277271,14.3352251 20.2842751,14.2210928 L20.2871899,14.1722293 C20.3591021,13.0172351 20.4484594,11.5798207 20.07315,10.7264744 C19.8159105,10.1420094 19.4704884,9.63935095 19.0462805,9.23181747 C18.6905044,8.89030256 18.277216,8.6134832 17.8176392,8.4088565 C17.0178608,8.0531412 16.2722885,8 15.8991108,8" stroke="#000000" fill="#FFFFFF"></path>
                </g>
            </g>
        </g>
    </g>
</svg>