<?xml version="1.0" encoding="UTF-8"?>
<svg width="32px" height="32px" viewBox="0 0 32 32" version="1.1" xmlns="http://www.w3.org/2000/svg" xmlns:xlink="http://www.w3.org/1999/xlink">
    <!-- Generator: Sketch 47.1 (45422) - http://www.bohemiancoding.com/sketch -->
    <title>Tumblr</title>
    <desc>Created with Sketch.</desc>
    <defs></defs>
    <g id="Symbols" stroke="none" stroke-width="1" fill="none" fill-rule="evenodd">
        <g id="Tumblr">
            <g transform="translate(0.000000, 0.000000)">
                <path d="M0,16 C0,7.16344357 7.16344357,0 16,0 C24.8365564,0 32,7.16344357 32,16 C32,24.8365564 24.8365564,32 16,32 C7.16344357,32 0,24.8365564 0,16 Z" id="back" fill="#323E4D"></path>
                <g id="Group" transform="translate(8.533333, 6.400000)">
                    <path d="M11.4618749,19.6612235 L11.4616229,19.6612235 C9.80402996,19.661139 8.65316014,19.1283655 7.87461326,18.3758948 C8.21972584,18.3988592 8.57922744,18.4102709 8.95283812,18.4102709 C10.7760168,18.4102709 12.5825109,17.7569274 13.1800753,16.965375 L13.2997785,16.8067376 L12.9403609,15.7343999 C13.2816383,15.6586598 13.6206761,15.5317217 13.9003102,15.3754231 L14.8990315,18.3550437 C14.3257102,19.1145869 12.8990414,19.637752 11.5933357,19.6601246 C11.5490488,19.6608572 11.5055178,19.6612235 11.4618749,19.6612235 M9.57271383,13.3829888 C9.53853291,13.3829888 9.5076273,13.361067 9.4989491,13.3277898 C9.46955518,13.215363 9.45197482,13.0778866 9.44925938,12.9080348 L9.44925938,8.784422 C9.44925938,8.74204357 9.48338432,8.70769562 9.52548761,8.70769562 L12.4959249,8.70769562 C12.5380281,8.70769562 12.5721531,8.67334768 12.5721531,8.63096925 L12.5721531,6.32824824 L14.2151051,6.32824824 L14.2151051,9.94903985 L11.0922394,9.94903985 L11.0922394,13.3829888 L9.57271383,13.3829888 M11.1049767,4.33570126 L9.53822497,4.33570126 C9.49614968,4.33570126 9.46199675,4.30135332 9.46199675,4.25900307 L9.46199675,2.06298891 L11.1049767,2.06298891 L11.1049767,4.33570126" id="Fill-3" fill="#2A323B"></path>
                    <path d="M12.4269471,16.6889853 C11.8579929,17.239595 10.6902985,17.6486426 9.57114616,17.6676904 C9.52887491,17.668423 9.48741549,17.6687893 9.4457881,17.6687893 L9.44542418,17.6687893 C5.76432599,17.668592 4.78220525,14.8402545 4.78220525,13.1689834 L4.78220525,8.03330378 C4.78220525,7.99095353 4.74808031,7.95660558 4.70597702,7.95660558 L2.9259934,7.95660558 C2.8839181,7.95660558 2.84976517,7.92225764 2.84976517,7.87987921 L2.84976517,5.54035884 C2.84976517,5.50908221 2.86922114,5.48118683 2.89819515,5.46983144 C4.80065343,4.72440501 5.86308955,3.24324508 6.14255572,0.952302116 C6.15812049,0.825025942 6.26242691,0.821531975 6.26351868,0.821531975 L8.63958295,0.821531975 C8.68165824,0.821531975 8.71578318,0.855879918 8.71578318,0.898258348 L8.71578318,5.01009311 C8.71578318,5.05244336 8.74990812,5.0867913 8.7920114,5.0867913 L11.7497113,5.0867913 C11.7918146,5.0867913 11.8259395,5.12116742 11.8259395,5.16351768 L11.8259395,7.87987921 C11.8259395,7.92225764 11.7918146,7.95660558 11.7497113,7.95660558 L8.77927404,7.95660558 C8.73717075,7.95660558 8.70304581,7.99095353 8.70304581,8.03333196 L8.7031298,12.9140929 C8.72062618,14.013058 9.24904482,14.5701484 10.2737168,14.5701484 C10.6866033,14.5701484 11.1595094,14.4734726 11.5912641,14.3074528 C11.6316317,14.2919554 11.6761705,14.3126092 11.6899717,14.3538042 L12.4455633,16.608286 C12.4551093,16.6367167 12.4484187,16.6681906 12.4269471,16.6889853 M8.95283812,18.4102709 C10.7760168,18.4102709 12.5825109,17.7569274 13.1800753,16.965375 L13.2997785,16.8067376 L12.1696804,13.4351729 C12.1592105,13.4039808 12.1301526,13.3829888 12.0974553,13.3829888 L9.57271383,13.3829888 C9.53853291,13.3829888 9.5076273,13.361067 9.4989491,13.3277898 C9.46955518,13.215363 9.45197482,13.0778866 9.44925938,12.9080348 L9.44925938,8.784422 C9.44925938,8.74204357 9.48338432,8.70769562 9.52548761,8.70769562 L12.4959249,8.70769562 C12.5380281,8.70769562 12.5721531,8.67334768 12.5721531,8.63096925 L12.5721531,4.41242763 C12.5721531,4.37004921 12.5380281,4.33570126 12.4959249,4.33570126 L9.53822497,4.33570126 C9.49614968,4.33570126 9.46199675,4.30135332 9.46199675,4.25900307 L9.46199675,0.147168308 C9.46199675,0.104789878 9.4278998,0.0704419354 9.38579652,0.0704419354 L4.19880598,0.0704419354 C3.82788275,0.0704419354 3.39985133,0.347338762 3.33725628,0.860613679 C3.07828188,2.98314184 2.11116603,4.2564953 0.293726153,4.86785487 L0.0909361208,4.93598721 C0.0598065632,4.94644093 0.0388389025,4.97574517 0.0388389025,5.00876878 L0.0388389025,8.63096925 C0.0388389025,8.67334768 0.0729638403,8.70769562 0.115067127,8.70769562 L1.97125098,8.70769562 L1.97125098,13.1689834 C1.97125098,16.7303494 4.42191981,18.4102709 8.95283812,18.4102709" id="Fill-4" fill="#FFFFFE"></path>
                    <path d="M4.03596368,9.9080421 L1.97125098,9.9080421 L1.97125098,8.70769562 L3.9686936,8.70769562 C4.00584192,8.70769562 4.03596368,8.73801423 4.03596368,8.77540531 L4.03596368,9.9080421" id="Fill-5" fill="#83838D"></path>
                </g>
            </g>
        </g>
    </g>
</svg>