<?xml version="1.0" encoding="UTF-8"?><svg width="32px" height="32px" viewBox="0 0 32 32" version="1.1" xmlns="http://www.w3.org/2000/svg" xmlns:xlink="http://www.w3.org/1999/xlink"><!-- Generator: Sketch 49.3 (51167) - http://www.bohemiancoding.com/sketch --><title>tumblr</title><desc>Created with Sketch.</desc><defs><path d="M0,16 C0,24.837 7.163,32 16,32 C24.837,32 32,24.837 32,16 C32,7.163 24.837,0 16,0 C7.163,0 0,7.163 0,16 Z" id="path-1"/></defs><g id="tumblr" stroke="none" stroke-width="1" fill="none" fill-rule="evenodd"><g><mask id="mask-2" fill="white"><use xlink:href="#path-1"/></mask><use id="round" fill="#323E4D" xlink:href="#path-1"/><path d="M17.995,8.463 L17.995,10.659 C17.995,10.701 18.029,10.735 18.072,10.735 L19.638,10.735 L19.638,8.463 L17.995,8.463 Z M21.105,12.728 L21.105,15.031 C21.105,15.073 21.071,15.107 21.029,15.107 L18.059,15.107 C18.017,15.107 17.982,15.142 17.982,15.184 L17.982,19.308 C17.985,19.478 18.003,19.616 18.032,19.728 C18.041,19.761 18.072,19.783 18.106,19.783 L19.626,19.783 L19.626,16.349 L22.749,16.349 L22.749,12.728 L21.105,12.728 Z M21.473,22.135 L21.833,23.207 L21.714,23.365 C21.116,24.157 19.309,24.81 17.486,24.81 C17.113,24.81 16.753,24.799 16.408,24.776 C17.187,25.529 18.337,26.061 19.995,26.061 C20.039,26.061 20.082,26.061 20.127,26.061 C21.432,26.038 22.859,25.514 23.433,24.755 L22.434,21.776 C22.154,21.931 21.815,22.059 21.473,22.135 Z" id="shadow" fill="#2A323B"/><path d="M12.732,6.47 C12.361,6.47 11.934,6.747 11.87,7.26 C11.611,9.383 10.645,10.656 8.827,11.268 L8.624,11.336 C8.593,11.346 8.572,11.376 8.572,11.408 L8.572,15.031 C8.572,15.073 8.606,15.107 8.648,15.107 L10.504,15.107 L10.504,19.569 C10.504,23.13 12.955,24.81 17.486,24.81 C19.309,24.81 21.116,24.157 21.714,23.365 L21.833,23.207 L20.703,19.835 C20.692,19.804 20.663,19.783 20.631,19.783 L18.106,19.783 C18.072,19.783 18.041,19.761 18.032,19.728 C18.003,19.616 17.985,19.478 17.982,19.308 L17.982,15.184 C17.982,15.142 18.017,15.107 18.059,15.107 L21.029,15.107 C21.071,15.107 21.105,15.073 21.105,15.031 L21.105,10.813 C21.105,10.77 21.071,10.735 21.029,10.735 L18.072,10.735 C18.029,10.735 17.995,10.701 17.995,10.659 L17.995,6.548 C17.995,6.504 17.961,6.47 17.919,6.47 L12.732,6.47 Z M11.383,14.279 L11.383,11.94 C11.383,11.909 11.402,11.881 11.431,11.87 C13.334,11.124 14.397,9.644 14.676,7.352 C14.691,7.225 14.796,7.222 14.797,7.222 L17.173,7.222 C17.215,7.222 17.249,7.256 17.249,7.298 L17.249,11.41 C17.249,11.453 17.283,11.487 17.325,11.487 L20.283,11.487 C20.325,11.487 20.359,11.521 20.359,11.563 L20.359,14.279 C20.359,14.323 20.325,14.357 20.283,14.357 L17.313,14.357 C17.271,14.357 17.236,14.391 17.236,14.433 L17.236,19.314 C17.254,20.413 17.783,20.97 18.807,20.97 C19.22,20.97 19.692,20.874 20.124,20.707 C20.165,20.692 20.21,20.713 20.223,20.754 L20.979,23.009 C20.988,23.036 20.982,23.068 20.96,23.089 C20.392,23.639 19.223,24.049 18.105,24.068 C18.062,24.069 18.021,24.069 17.979,24.069 C14.298,24.069 13.316,21.24 13.316,19.569 L13.316,14.433 C13.316,14.391 13.282,14.357 13.239,14.357 L11.459,14.357 C11.417,14.357 11.383,14.323 11.383,14.279 Z" id="self" fill="#FFFFFF"/><path d="M10.504,15.107 L10.504,16.308 L12.569,16.308 L12.569,15.175 C12.569,15.138 12.539,15.107 12.502,15.107 L10.504,15.107 Z" id="small-rect" fill="#83838D"/></g></g></svg>
