<?xml version="1.0" encoding="UTF-8"?>
<svg width="32px" height="32px" viewBox="0 0 32 32" version="1.1" xmlns="http://www.w3.org/2000/svg" xmlns:xlink="http://www.w3.org/1999/xlink">
    <!-- Generator: Sketch 46.2 (44496) - http://www.bohemiancoding.com/sketch -->
    <title>Tumblr Copy</title>
    <desc>Created with Sketch.</desc>
    <defs></defs>
    <g id="General" stroke="none" stroke-width="1" fill="none" fill-rule="evenodd">
        <g id="Style-overview" transform="translate(-56.000000, -1989.000000)">
            <g id="Twitter" transform="translate(56.000000, 1989.000000)">
                <g>
                    <path d="M0,16 C0,7.16344357 7.16344357,0 16,0 C24.8365564,0 32,7.16344357 32,16 C32,24.8365564 24.8365564,32 16,32 C7.16344357,32 0,24.8365564 0,16 Z" id="back" fill="#55ACEE"></path>
                    <path d="M16.0208017,13.4050004 L16.0543768,13.9586365 L15.4947933,13.8908443 C13.4579095,13.6309743 11.6784341,12.7496761 10.1675587,11.2695469 L9.42890855,10.5351317 L9.23865017,11.0774691 C8.83575008,12.2864295 9.09315847,13.5631822 9.93253367,14.421883 C10.3802004,14.8964283 10.2794754,14.9642204 9.50725023,14.681753 C9.23865017,14.5913635 9.00362512,14.5235713 8.98124178,14.5574674 C8.90290009,14.6365583 9.17150016,15.6647396 9.38414187,16.0714926 C9.67512527,16.6364274 10.2682837,17.1900635 10.9174006,17.5177257 L11.4657924,17.7775957 L10.8166755,17.7888944 C10.1899421,17.7888944 10.1675587,17.8001931 10.2347087,18.0374657 C10.4585421,18.7718809 11.342684,19.551491 12.3275509,19.8904518 L13.0214344,20.1277244 L12.4170842,20.4892827 C11.5217507,21.0090227 10.4697338,21.3027888 9.41771688,21.3253862 C8.91409176,21.3366849 8.5,21.3818797 8.5,21.4157758 C8.5,21.5287627 9.86538365,22.1614897 10.6599922,22.410061 C13.0438177,23.1444762 15.87531,22.8281128 18.0017272,21.5739575 C19.5126026,20.6813605 21.0234779,18.9074653 21.7285531,17.1900635 C22.1090698,16.2748692 22.4895866,14.6026622 22.4895866,13.8004548 C22.4895866,13.2807148 22.5231616,13.2129226 23.1498951,12.5914943 C23.5192202,12.229936 23.8661619,11.8344817 23.9333119,11.7214947 C24.0452286,11.5068195 24.0340369,11.5068195 23.4632618,11.6988973 C22.5119699,12.0378582 22.3776699,11.9926634 22.84772,11.4842221 C23.1946618,11.1226639 23.6087535,10.4673395 23.6087535,10.2752617 C23.6087535,10.2413656 23.4408785,10.2978591 23.2506201,10.3995473 C23.0491701,10.5125343 22.6015033,10.6820147 22.2657532,10.783703 L21.6614031,10.9757808 L21.1130113,10.6029238 C20.8108362,10.3995473 20.3855528,10.1735734 20.1617194,10.1057812 C19.5909442,9.94759949 18.717994,9.97019688 18.2031773,10.150976 C16.8042186,10.6594173 15.9200767,11.970066 16.0208017,13.4050004 Z" id="Shape" fill="#FFFFFF"></path>
                </g>
            </g>
        </g>
    </g>
</svg>