<svg width="21px" height="21px" viewBox="0 0 21 21" version="1.1" xmlns="http://www.w3.org/2000/svg">
  <g>
    <path d="M0,10.5 C0,4.70100984 4.6306261,0 10.3427935,0 C16.0549609,0 20.685587,4.70100984 20.685587,10.5 C20.685587,16.2989902 16.0549609,21 10.3427935,21 C4.6306261,21 0,16.2989902 0,10.5 Z" id="back" fill="#CE1312"></path>
    <path d="M15.7259016,8.38647088 C15.7259016,8.38647088 15.6181475,7.59781623 15.288,7.25052206 C14.8690328,6.79449727 14.399459,6.79235127 14.1842951,6.76588395 C12.6426885,6.65 10.3302787,6.65 10.3302787,6.65 L10.325459,6.65 C10.325459,6.65 8.01304918,6.65 6.47144262,6.76588395 C6.25593443,6.79235127 5.78670492,6.79449727 5.36739344,7.25052206 C5.0372459,7.59781623 4.92983607,8.38647088 4.92983607,8.38647088 C4.92983607,8.38647088 4.81967213,9.31282712 4.81967213,10.2388257 L4.81967213,11.10724 C4.81967213,12.0335962 4.92983607,12.9595948 4.92983607,12.9595948 C4.92983607,12.9595948 5.0372459,13.7482494 5.36739344,14.0955436 C5.78670492,14.5515684 6.33718033,14.5372617 6.58229508,14.5848314 C7.46360656,14.6728173 10.3278689,14.7 10.3278689,14.7 C10.3278689,14.7 12.6426885,14.6964233 14.1842951,14.5805394 C14.399459,14.5537144 14.8690328,14.5515684 15.288,14.0955436 C15.6181475,13.7482494 15.7259016,12.9595948 15.7259016,12.9595948 C15.7259016,12.9595948 15.8360656,12.0335962 15.8360656,11.10724 L15.8360656,10.2388257 C15.8360656,9.31282712 15.7259016,8.38647088 15.7259016,8.38647088 L15.7259016,8.38647088 Z" fill="#FFFFFF"></path>
    <polygon id="Path" fill="#CE1312" points="9.19042623 12.1594948 9.19008197 8.94371529 12.1665738 10.5571489"></polygon>
  </g>
</svg>
