<svg width="32px" height="32px" viewBox="0 0 32 32" version="1.1" xmlns="http://www.w3.org/2000/svg"><g id="pinterest" stroke="none" stroke-width="1" fill="none" fill-rule="evenodd"><path d="M10.168,30.9 C4.217,28.568 0,22.777 0,16 C0,7.161 7.163,0 16,0 C24.837,0 32,7.161 32,16 C32,24.837 24.837,32 16,32 C14.349,32 12.759,31.75 11.263,31.285 C11.914,30.222 12.889,28.481 13.25,27.091 C13.445,26.342 14.247,23.288 14.247,23.288 C14.768,24.283 16.293,25.126 17.916,25.126 C22.74,25.126 26.217,20.688 26.217,15.173 C26.217,9.888 21.904,5.932 16.353,5.932 C9.449,5.932 5.783,10.569 5.783,15.616 C5.783,17.961 7.031,20.885 9.027,21.815 C9.333,21.955 9.495,21.893 9.565,21.599 C9.618,21.378 9.888,20.291 10.009,19.786 C10.047,19.623 10.028,19.485 9.898,19.327 C9.236,18.525 8.708,17.05 8.708,15.674 C8.708,12.146 11.38,8.731 15.932,8.731 C19.863,8.731 22.615,11.408 22.615,15.24 C22.615,19.569 20.429,22.568 17.585,22.568 C16.015,22.568 14.839,21.271 15.215,19.676 C15.668,17.774 16.541,15.722 16.541,14.349 C16.541,13.12 15.881,12.095 14.517,12.095 C12.91,12.095 11.622,13.756 11.622,15.981 C11.622,17.397 12.101,18.357 12.101,18.357 C12.101,18.357 10.514,25.06 10.224,26.308 C9.903,27.692 10.028,29.634 10.168,30.9 Z" id="Combined-Shape" fill="#BD081C"></path></g></svg>
