<?xml version="1.0" encoding="utf-8"?>
<!-- Generator: Adobe Illustrator 19.2.0, SVG Export Plug-In . SVG Version: 6.00 Build 0)  -->
<svg version="1.1" id="Layer_1" xmlns="http://www.w3.org/2000/svg" xmlns:xlink="http://www.w3.org/1999/xlink" x="0px" y="0px"
	 viewBox="0 0 22 22" style="enable-background:new 0 0 22 22;" xml:space="preserve">
<style type="text/css">
	.st0{fill:#000066;}
	.st1{fill:#FFFFFF;}
	.st2{fill:#CC0000;}
</style>
<g id="General">
	<g id="Group-33">
		<polygon id="Fill-28" class="st0" points="-11.9,22.7 34.5,22.7 34.5,-0.5 -11.9,-0.5 		"/>
		<path id="Fill-30" class="st1" d="M34.5-0.5v2.6L-6.6,22.7h-5.2v-2.6L29.3-0.5H34.5z M-11.9-0.5v2.6l41.2,20.5h5.2V20L-6.6-0.5
			H-11.9z"/>
		<path id="Fill-31" class="st1" d="M-11.9,15h46.3V7.2h-46.3V15z M7.5,22.7h7.7V-0.5H7.5V22.7z"/>
		<rect id="Rectangle-8" x="7.7" y="6.6" class="st1" width="6.5" height="8.7"/>
		<polygon id="Path" class="st2" points="9,22.7 13.6,22.7 13.6,-0.5 9,-0.5 		"/>
		<path id="Fill-32" class="st2" d="M34.5,22.7L19,15h3.5l12,6V22.7z M15.5,7.2L31-0.5h3.5L19,7.2H15.5z M-11.9-0.5L3.6,7.2H0.1
			l-12-6V-0.5z M-11.9,22.7L3.6,15h3.5l-15.4,7.7H-11.9z M9,22.7h4.7V-0.5H9V22.7z M-11.9,13.4h46.3V8.8h-46.3V13.4z"/>
	</g>
</g>
</svg>
