<?xml version="1.0" encoding="UTF-8"?>
<svg width="32px" height="31px" viewBox="0 0 32 31" version="1.1" xmlns="http://www.w3.org/2000/svg" xmlns:xlink="http://www.w3.org/1999/xlink">
    <!-- Generator: Sketch 46.2 (44496) - http://www.bohemiancoding.com/sketch -->
    <title>Snapchat Copy</title>
    <desc>Created with Sketch.</desc>
    <defs>
        <polygon id="path-1" points="31.9531743 30.5454545 4.89296636e-05 30.5454545 4.89296636e-05 0.0446692244 31.9531743 0.0446692244 31.9531743 30.5454545"></polygon>
    </defs>
    <g id="General" stroke="none" stroke-width="1" fill="none" fill-rule="evenodd">
        <g id="Style-overview" transform="translate(-370.000000, -1989.000000)">
            <g id="podcast" transform="translate(370.000000, 1989.000000)">
                <g id="Group-4">
                    <g id="Page-1">
                        <g id="Group-3" transform="translate(0.000000, 0.048761)">
                            <mask id="mask-2" fill="white">
                                <use xlink:href="#path-1"></use>
                            </mask>
                            <g id="Clip-2"></g>
                            <path d="M31.9531743,15.2950712 C31.9531743,6.87246572 24.8002446,0.0446692244 15.9765627,0.0446692244 C7.15297859,0.0446692244 4.89296636e-05,6.87246572 4.89296636e-05,15.2950712 C4.89296636e-05,23.7176767 7.15297859,30.5454732 15.9765627,30.5454732 C24.8002446,30.5454732 31.9531743,23.7176767 31.9531743,15.2950712" id="Fill-1" fill="#7E40B5" mask="url(#mask-2)"></path>
                        </g>
                        <path d="M19.2756159,12.7497101 C19.275518,13.6242255 19.278356,14.498741 19.2749309,15.373163 C19.2684722,16.9940337 17.896778,18.3943606 16.2206434,18.4953381 C14.4782581,18.6002389 12.9523376,17.4300771 12.7055364,15.8040687 C12.6805823,15.639198 12.6701113,15.475168 12.6701113,15.30955 C12.670307,13.5936801 12.6690349,11.8779036 12.6706006,10.1619403 C12.6720685,8.54368507 13.8739768,7.20379516 15.5597994,7.00155997 C17.4656098,6.77298282 18.9939768,8.08484937 19.2374508,9.65172844 C19.2661235,9.83621551 19.2762031,10.0200487 19.2760073,10.2057501 C19.2752245,11.0537368 19.2756159,11.9017234 19.2756159,12.7497101" id="Fill-4" fill="#FFFFFF"></path>
                        <path d="M22.5624954,15.0009755 C22.6138716,15.8771723 22.4545566,16.832395 22.0466789,17.7419396 C21.32663,19.3473041 20.1067156,20.4751506 18.4255902,21.1553708 C18.0790703,21.295581 17.7176758,21.3913274 17.3528563,21.4670839 C17.1511682,21.5089321 17.0969541,21.5967386 17.099792,21.7787036 C17.1084037,22.3350606 17.1040979,22.8916977 17.1021407,23.4482415 C17.1012599,23.6889621 17.0777737,23.7106335 16.8293089,23.711194 C16.260159,23.7124083 15.6910092,23.7123149 15.1218593,23.711194 C14.8699694,23.7107269 14.8457003,23.6894292 14.8447217,23.4518846 C14.8425688,22.8820764 14.8401223,22.3122682 14.8460917,21.7425535 C14.8477554,21.5905735 14.793737,21.5138829 14.6326606,21.483244 C13.5712783,21.2815693 12.6183242,20.8549605 11.7863242,20.1940764 C10.9165505,19.5033008 10.2589358,18.6579296 9.84861162,17.6498362 C9.55816514,16.9361748 9.38769419,16.1942098 9.38563914,15.4232874 C9.38426911,14.9529621 9.39043425,14.48245 9.38152905,14.0122182 C9.37800612,13.8280113 9.43877676,13.7491723 9.64300917,13.7522549 C10.2189113,13.7611289 10.7952049,13.7609421 11.371107,13.7522549 C11.5665321,13.7493591 11.6184954,13.8225001 11.6188869,13.9993274 C11.6204526,14.5554042 11.6050887,15.1112007 11.6411988,15.6677445 C11.7460061,17.2825435 12.9691498,18.7753475 14.5832416,19.2788337 C15.3293211,19.5116143 16.0844037,19.5697161 16.8384098,19.4149338 C17.8115229,19.2151273 18.6449908,18.7583466 19.2949725,18.0174092 C20.0036697,17.2094025 20.3141774,16.270807 20.330422,15.2317011 C20.3369786,14.8143399 20.3370765,14.396792 20.3291498,13.9795243 C20.3260183,13.8170822 20.3886483,13.7529088 20.5584343,13.7541231 C21.1483303,13.7585134 21.7383242,13.7586068 22.3282202,13.7537495 C22.4955596,13.7524417 22.5681713,13.811571 22.5644526,13.9754142 C22.5575046,14.2799346 22.5624954,14.5848287 22.5624954,15.0009755" id="Fill-6" fill="#FFFFFF"></path>
                    </g>
                </g>
            </g>
        </g>
    </g>
</svg>