<?xml version="1.0" encoding="UTF-8"?>
<svg width="25px" height="25px" viewBox="0 0 25 25" version="1.1" xmlns="http://www.w3.org/2000/svg" xmlns:xlink="http://www.w3.org/1999/xlink">
    <!-- Generator: Sketch 47.1 (45422) - http://www.bohemiancoding.com/sketch -->
    <title>Tumblr Copy</title>
    <desc>Created with Sketch.</desc>
    <defs></defs>
    <g id="Brand-sketches" stroke="none" stroke-width="1" fill="none" fill-rule="evenodd">
        <g id="Brand-user---Find-influencer-Copy" transform="translate(-81.000000, -1194.000000)">
            <g id="Tumblr-Copy" transform="translate(81.000000, 1194.000000)">
                <path d="M0,12.5 C0,5.59644029 5.59644029,0 12.5,0 C19.4035597,0 25,5.59644029 25,12.5 C25,19.4035597 19.4035597,25 12.5,25 C5.59644029,25 0,19.4035597 0,12.5 Z" id="back" fill="#BDC0C9"></path>
                <g id="Group" transform="translate(6.666667, 5.000000)">
                    <path d="M8.95458974,15.3603309 L8.9543929,15.3603309 C7.65939841,15.3602648 6.76028136,14.9440355 6.15204161,14.3561678 C6.42166081,14.3741087 6.70252144,14.3830241 6.99440478,14.3830241 C8.41876313,14.3830241 9.83008667,13.8725995 10.2969338,13.2541992 L10.390452,13.1302638 L10.1096569,12.2924999 C10.3762799,12.2333279 10.6411532,12.1341576 10.8596174,12.0120493 L11.6398684,14.3398779 C11.1919611,14.933271 10.0773761,15.3419937 9.05729348,15.3594724 C9.02269439,15.3600447 8.98868581,15.3603309 8.95458974,15.3603309 M7.47868268,10.45546 C7.45197883,10.45546 7.42783383,10.4383336 7.42105398,10.4123358 C7.39808999,10.3245023 7.38435533,10.2170989 7.38223389,10.0844022 L7.38223389,6.86282968 C7.38223389,6.82972154 7.408894,6.80288721 7.44178719,6.80288721 L9.7624413,6.80288721 C9.79533449,6.80288721 9.8219946,6.77605288 9.8219946,6.74294473 L9.8219946,4.94394394 L11.1055508,4.94394394 L11.1055508,7.77268738 L8.665812,7.77268738 L8.665812,10.45546 L7.47868268,10.45546 M8.67576307,3.38726661 L7.45173826,3.38726661 C7.41886694,3.38726661 7.39218496,3.36043228 7.39218496,3.32734615 L7.39218496,1.61171009 L8.67576307,1.61171009 L8.67576307,3.38726661" id="Fill-3" fill="#BDC0C9"></path>
                    <path d="M9.70855245,13.0382698 C9.26405694,13.4684336 8.35179574,13.788002 7.47745794,13.8028831 C7.44443352,13.8034554 7.41204335,13.8037416 7.37952195,13.8037416 L7.37923764,13.8037416 C4.50337968,13.8035875 3.73609785,11.5939488 3.73609785,10.2882683 L3.73609785,6.27601858 C3.73609785,6.24293244 3.70943774,6.21609811 3.67654455,6.21609811 L2.28593234,6.21609811 C2.25306102,6.21609811 2.22637904,6.18926378 2.22637904,6.15615563 L2.22637904,4.32840535 C2.22637904,4.30397048 2.24157902,4.28217721 2.26421496,4.27330582 C3.75051049,3.69094141 4.58053871,2.53378522 4.79887165,0.743986028 C4.81103164,0.644551517 4.89252102,0.641821856 4.89337397,0.641821856 L6.74967418,0.641821856 C6.7825455,0.641821856 6.80920561,0.668656186 6.80920561,0.701764334 L6.80920561,3.91413524 C6.80920561,3.94722138 6.83586571,3.97405571 6.86875891,3.97405571 L9.17946195,3.97405571 C9.21235514,3.97405571 9.23901525,4.00091205 9.23901525,4.03399818 L9.23901525,6.15615563 C9.23901525,6.18926378 9.21235514,6.21609811 9.17946195,6.21609811 L6.85880784,6.21609811 C6.82591465,6.21609811 6.79925454,6.24293244 6.79925454,6.27604059 L6.79932015,10.0891351 C6.8129892,10.9477016 7.22581626,11.3829284 8.02634122,11.3829284 C8.34890884,11.3829284 8.71836675,11.3074005 9.05567507,11.1776975 C9.08721229,11.1655902 9.12200821,11.181726 9.13279036,11.2139096 L9.72309632,12.9752234 C9.73055415,12.9974349 9.72532711,13.0220239 9.70855245,13.0382698 M6.99440478,14.3830241 C8.41876313,14.3830241 9.83008667,13.8725995 10.2969338,13.2541992 L10.390452,13.1302638 L9.5075628,10.4962288 C9.49938324,10.47186 9.47668169,10.45546 9.45113697,10.45546 L7.47868268,10.45546 C7.45197883,10.45546 7.42783383,10.4383336 7.42105398,10.4123358 C7.39808999,10.3245023 7.38435533,10.2170989 7.38223389,10.0844022 L7.38223389,6.86282968 C7.38223389,6.82972154 7.408894,6.80288721 7.44178719,6.80288721 L9.7624413,6.80288721 C9.79533449,6.80288721 9.8219946,6.77605288 9.8219946,6.74294473 L9.8219946,3.44720909 C9.8219946,3.41410094 9.79533449,3.38726661 9.7624413,3.38726661 L7.45173826,3.38726661 C7.41886694,3.38726661 7.39218496,3.36043228 7.39218496,3.32734615 L7.39218496,0.11497524 C7.39218496,0.0818670922 7.36554672,0.055032762 7.33265353,0.055032762 L3.28031717,0.055032762 C2.9905334,0.055032762 2.65613385,0.271358408 2.60723147,0.672354437 C2.40490772,2.33057956 1.64934846,3.32538695 0.229473557,3.80301162 L0.0710438444,3.85624001 C0.0467238775,3.86440698 0.0303428926,3.88730091 0.0303428926,3.91310061 L0.0303428926,6.74294473 C0.0303428926,6.77605288 0.0570030002,6.80288721 0.0898961928,6.80288721 L1.54003983,6.80288721 L1.54003983,10.2882683 C1.54003983,13.0705854 3.45462485,14.3830241 6.99440478,14.3830241" id="Fill-4" fill="#FFFFFE"></path>
                    <path d="M3.15309663,7.74065789 L1.54003983,7.74065789 L1.54003983,6.80288721 L3.10054188,6.80288721 C3.129564,6.80288721 3.15309663,6.82657362 3.15309663,6.8557854 L3.15309663,7.74065789" id="Fill-5" fill="#BDC0C9"></path>
                </g>
            </g>
        </g>
    </g>
</svg>