<svg xmlns="http://www.w3.org/2000/svg" viewBox="0 0 42 42">
  <defs>
    <clipPath id="a" transform="translate(-179.35 -589.98)">
      <circle cx="200.35" cy="610.98" r="16" style="fill:none"/>
    </clipPath>
    <clipPath id="b" transform="translate(-179.35 -589.98)">
      <rect x="184.35" y="594.98" width="33" height="32" style="fill:none"/>
    </clipPath>
    <clipPath id="c" transform="translate(-179.35 -589.98)">
      <path
        d="M204,605.72h-1.57a0.08,0.08,0,0,1-.08-0.08v-2.2H204v2.27m-1.53,9a0.08,0.08,0,0,1-.07-0.06,1.78,1.78,0,0,1,0-.42v-4.12a0.08,0.08,0,0,1,.08-0.08h3a0.08,0.08,0,0,0,.08-0.08v-2.3h1.64v3.62H204v3.43h-1.52m1.89,6.28h0a5,5,0,0,1-3.59-1.29q0.52,0,1.08,0c1.82,0,3.63-.65,4.23-1.44l0.12-.16-0.36-1.07a3.62,3.62,0,0,0,1-.36l1,3a4.56,4.56,0,0,1-3.31,1.31h-0.13"
        style="fill:none;clip-rule:evenodd"/>
    </clipPath>
    <clipPath id="e" transform="translate(-179.35 -589.98)">
      <path
        d="M201.83,619.79c1.82,0,3.63-.65,4.23-1.44l0.12-.16L205,614.82a0.08,0.08,0,0,0-.07-0.05h-2.52a0.08,0.08,0,0,1-.07-0.06,1.78,1.78,0,0,1,0-.42v-4.12a0.08,0.08,0,0,1,.08-0.08h3a0.08,0.08,0,0,0,.08-0.08V605.8a0.08,0.08,0,0,0-.08-0.08h-3a0.08,0.08,0,0,1-.08-0.08v-4.11a0.08,0.08,0,0,0-.08-0.08h-5.19a0.88,0.88,0,0,0-.86.79,4.32,4.32,0,0,1-3,4l-0.2.07a0.08,0.08,0,0,0-.05.07V610a0.08,0.08,0,0,0,.08.08h1.86v4.46c0,3.56,2.45,5.24,7,5.24m3.47-1.72a4.56,4.56,0,0,1-2.86,1h-0.13a4.35,4.35,0,0,1-4.66-4.5v-5.14a0.08,0.08,0,0,0-.08-0.08h-1.78a0.08,0.08,0,0,1-.08-0.08v-2.34a0.08,0.08,0,0,1,0-.07,5.05,5.05,0,0,0,3.24-4.52,0.13,0.13,0,0,1,.12-0.13h2.38a0.08,0.08,0,0,1,.08.08v4.11a0.08,0.08,0,0,0,.08.08h3a0.08,0.08,0,0,1,.08.08v2.72a0.08,0.08,0,0,1-.08.08h-3a0.08,0.08,0,0,0-.08.08v4.88a1.45,1.45,0,0,0,1.57,1.66,3.81,3.81,0,0,0,1.32-.26,0.08,0.08,0,0,1,.1,0l0.76,2.25a0.08,0.08,0,0,1,0,.08"
        style="fill:none;clip-rule:evenodd"/>
    </clipPath>
    <clipPath id="g" transform="translate(-179.35 -589.98)">
      <path d="M196.92,611.29h-2.06v-1.2h2a0.07,0.07,0,0,1,.07.07v1.13" style="fill:none;clip-rule:evenodd"/>
    </clipPath>
  </defs>
  <title>tumblr2</title>
  <g style="clip-path:url(#a)">
    <g style="clip-path:url(#b)">
      <rect width="42" height="42" style="fill:#323e4d"/>
    </g>
  </g>
  <g style="clip-path:url(#c)">
    <g style="clip-path:url(#b)">
      <rect x="16.41" y="8.46" width="17.02" height="27.6" style="fill:#2a323b"/>
    </g>
  </g>
  <g style="clip-path:url(#e)">
    <g style="clip-path:url(#b)">
      <rect x="8.57" y="6.47" width="23.26" height="28.34" style="fill:#fffffe"/>
    </g>
  </g>
  <g style="clip-path:url(#g)">
    <g style="clip-path:url(#b)">
      <rect x="10.5" y="15.11" width="12.06" height="11.2" style="fill:#83838d"/>
    </g>
  </g>
</svg>
